<svg xmlns="http://www.w3.org/2000/svg" width="122" height="33" viewBox="0 0 122 33">
    <g fill="none" fill-rule="evenodd">
        <path fill="#FFF" d="M0 31.887L122 31.887 122 0 0 0z" transform="translate(0 .89)"/>
        <path fill="#FCB912" d="M1.078 30.665L91.53 30.665 91.53 1.222 1.078 1.222z" transform="translate(0 .89)"/>
        <path fill="#231F20" d="M91.53 30.665L120.922 30.665 120.922 1.222 91.53 1.222z" transform="translate(0 .89)"/>
        <path fill="#FFF" d="M101.454 20.531c.518-.433.606-.97.606-1.45v-2.025h-2.816v2.746c0 .392-.317.71-.708.71-.393 0-.684-.318-.684-.71v-7.778c0-.392.291-.71.684-.71.391 0 .708.318.708.71v2.762h2.814v-2.865c0-1.584-1.033-2.887-3.545-2.89-2.58 0-3.558 1.31-3.558 2.893v8.121c0 1.57 1.242 2.757 2.832 2.757h.873l2.794-2.27zM112.558 20.851L112.558 11.927 110.615 11.927 110.615 9.296 117.651 9.296 117.651 11.927 115.697 11.927 115.697 22.787 114.864 22.787z" transform="translate(0 .89)"/>
        <path fill="#FCB912" d="M113.819 22.805L106.968 17.047 99.868 22.805z" transform="translate(0 .89)"/>
        <path fill="#FFF" d="M108.923 9.311h-3.925l-2.287 10.29 4.258-3.447 4.44 3.731-2.486-10.574zm-2.714 6.183l.76-3.888.754 3.888h-1.514z" transform="translate(0 .89)"/>
        <g>
            <path fill="#FFF" d="M102.2 1.128c0-.463.373-.839.84-.839.464 0 .836.376.836.84 0 .466-.372.842-.836.842-.467 0-.84-.376-.84-.843zm1.53 0c0-.38-.309-.69-.69-.69-.384 0-.695.31-.695.69 0 .384.311.695.695.695.381 0 .69-.31.69-.695zm-.868.055v.427h-.153V.622h.319c.18 0 .366.05.366.274 0 .113-.069.203-.2.23v.004c.136.026.151.088.168.195.013.093.025.197.058.285h-.198c-.01-.055-.025-.118-.033-.176-.01-.085-.01-.163-.054-.21-.04-.04-.09-.036-.142-.04h-.131zm.163-.154c.145-.005.178-.064.178-.14 0-.074-.032-.113-.157-.113h-.184v.253h.163z" transform="translate(0 .89) translate(16 8.887)"/>
            <path fill="#231F20" d="M.393 7.604l4.155 4.16.79-.794L.394 6.024l.856-.856 4.95 4.95.854-.86-4.95-4.945.86-.864 4.95 4.95.788-.79-4.15-4.153h5.072v6.92c0 .655-.266 1.184-.695 1.616-.43.43-1.072.678-1.744.695H.393V7.604zM23.407 10.25c-1.1 0-1.974-.339-2.619-1.017-.617-.645-.925-1.473-.925-2.483s.308-1.839.925-2.485c.645-.677 1.518-1.016 2.619-1.016 1.1 0 1.974.339 2.617 1.016.617.646.927 1.475.927 2.485 0 1.01-.31 1.838-.927 2.483-.643.678-1.517 1.017-2.617 1.017m0-5.496c-.564 0-.994.207-1.29.622-.255.357-.382.815-.382 1.374 0 .558.128 1.016.383 1.374.295.413.726.62 1.289.62.564 0 .992-.207 1.29-.62.254-.358.381-.816.381-1.374 0-.559-.127-1.017-.381-1.374-.297-.415-.726-.622-1.29-.622M29.306 10.112h-1.794V3.45h3.592c.7 0 1.272.143 1.717.43.52.335.78.817.78 1.445 0 .374-.093.707-.28 1-.2.316-.479.54-.839.671v.02c.613.136.96.667 1.04 1.594.02.255.042.51.07.766.046.391.122.636.228.736h-1.858c-.093-.13-.142-.484-.189-1.063-.033-.429-.102-.74-.21-.934-.166-.286-.442-.428-.828-.428h-1.429v2.425zm1.5-5.272h-1.5v1.502h1.58c.571 0 .858-.26.858-.783 0-.479-.313-.719-.939-.719z" transform="translate(0 .89) translate(16 8.887)"/>
        </g>
        <path fill="#231F20" d="M66.081 14.184h-.02l-.808 2.333h1.617l-.789-2.333zM64.374 19h-1.908l2.667-6.664h1.886L69.686 19H67.75l-.439-1.194h-2.487L64.374 19z" transform="translate(0 .89)"/>
        <g fill="#231F20">
            <path d="M10.367 1.788c-.092-.046-.198-.082-.313-.106-.122-.037-.281-.042-.389-.04-.587-.012-.858.168-.863.514-.003.191.184.363.609.506.463.12.925.24 1.388.364.615.171 1.082.38 1.396.628.428.34.637.784.628 1.333-.014.782-.347 1.362-.998 1.73-.535.312-1.245.552-2.13.537-.885-.016-1.662-.304-2.199-.678-.343-.24-.562-.476-.717-.895l-.011-.03 1.577-.534.012.02c.366.54.764.635.94.673.154.04.361.057.53.06l.053.001c.277-.01.514-.103.704-.204.226-.108.335-.293.346-.512.013-.23-.162-.456-.596-.578-.457-.124-.918-.25-1.38-.382-.629-.178-1.099-.386-1.407-.629-.433-.339-.646-.783-.637-1.332.011-.675.338-1.192.976-1.546.542-.3 1.192-.444 1.95-.43.778.013 1.423.194 1.934.545.276.185.466.384.61.64l.015.027-1.455.718-.015-.022c-.133-.19-.367-.297-.559-.378M4.539.45h1.858v3.945c0 .977-.247 1.701-.74 2.174-.512.48-1.301.72-2.366.72-1.065 0-1.851-.238-2.357-.71-.5-.48-.75-1.207-.75-2.184V.45h1.859v4.047c0 .865.416 1.298 1.248 1.298.832 0 1.248-.433 1.248-1.298V.45z" transform="translate(0 .89) translate(50 11.887)"/>
        </g>
        <path fill="#231F20" d="M71.81 19.02L70.062 19.02 70.062 12.357 71.97 12.357 74.447 16.463 74.467 16.463 74.467 12.357 76.214 12.357 76.214 19.02 74.307 19.02 71.831 14.867 71.81 14.867zM32.624 16.078h-1.488v1.532h1.488c.665 0 .998-.25.998-.747 0-.523-.333-.785-.998-.785m.08 2.92H29.28v-6.662h3.335c1.718 0 2.576.557 2.576 1.67 0 .604-.313 1.053-.939 1.345.38.1.68.292.9.579.22.285.33.619.33.998 0 1.381-.927 2.07-2.777 2.07m-.13-5.318h-1.438v1.279h1.438c.193 0 .36-.047.5-.14.172-.112.258-.278.258-.495 0-.428-.252-.643-.758-.643" transform="translate(0 .89)"/>
    </g>
</svg>
