<?xml version="1.0" encoding="UTF-8"?>
<svg width="124px" height="39px" viewBox="0 0 124 39" version="1.1" xmlns="http://www.w3.org/2000/svg" xmlns:xlink="http://www.w3.org/1999/xlink">
    <!-- Generator: Sketch 52.3 (67297) - http://www.bohemiancoding.com/sketch -->
    <title>Group 18</title>
    <desc>Created with Sketch.</desc>
    <defs>
        <polygon id="path-1" points="0.135578808 0.250821075 30.3431285 0.250821075 30.3431285 38.1702128 0.135578808 38.1702128"></polygon>
    </defs>
    <g id="Page-1" stroke="none" stroke-width="1" fill="none" fill-rule="evenodd">
        <g id="home_types" transform="translate(-50.000000, -23.000000)">
            <g id="Group-19">
                <g id="Group-18" transform="translate(50.000000, 23.000000)">
                    <path d="M5.18336424,16.4863787 L5.18336424,16.8689106 C5.18336424,21.6352085 5.18336424,26.4023362 5.18418543,31.1694638 C5.18418543,31.3711021 5.18418543,31.5752298 5.20553642,31.7760383 C5.30982781,32.7684638 5.77051656,33.3227617 6.71981457,33.4829106 C7.91300662,33.6837191 9.11851656,33.6812298 10.2944636,33.3783574 C12.9403444,32.6962723 14.5728742,30.9039319 15.3907815,28.3515064 C16.2127947,25.7824851 16.0584106,23.201017 15.0549139,20.7149745 C14.0801589,18.3019532 12.2924238,16.7942298 9.71552318,16.348634 C8.22177483,16.0897404 6.72638411,16.142017 5.18336424,16.4863787 Z M0,12.870166 C1.09136424,12.6162511 2.17451656,12.3125489 3.27655629,12.1200383 C5.52005298,11.7300383 7.79968212,11.7159319 10.0505695,11.9092723 C14.6738808,12.3084 18.1508079,14.5305702 20.083894,18.9027191 C20.9059073,20.7614426 21.161298,22.7512723 21.1292715,24.7817617 C21.0947815,26.9275915 20.7153907,29.0004 19.8309669,30.9570383 C18.2082914,34.5433787 15.581298,36.9539106 11.7315497,37.8774638 C11.1517881,38.0168681 10.5457483,38.0882298 9.94956291,38.1039957 C7.89001325,38.1595915 5.8181457,38.3114426 3.80622517,37.681634 C2.4175894,37.2476553 1.24328477,36.4884 0.633139073,35.1092936 C0.339152318,34.4438043 0.246357616,33.6862085 0.0730860927,32.9684426 C0.0270993377,32.7767617 0.0238145695,32.5742936 0,32.3768043 L0,12.870166 Z" id="Fill-1" fill="#5C2D90"></path>
                    <path d="M34.9010728,29.1102638 C34.8148477,29.0969872 34.7663974,29.0812213 34.717947,29.0820511 C33.2414437,29.0994766 31.7624768,29.0720936 30.2892583,29.1567319 C29.45,29.2056894 28.6115629,29.3965404 27.7920132,29.6014979 C27.2516689,29.737583 26.8821325,30.150817 26.8189007,30.7366468 C26.7499205,31.3747532 26.8451788,31.9970936 27.1679073,32.5654979 C27.6688344,33.4483915 28.4875629,33.8359021 29.4302914,34.0134766 C30.8189272,34.2748596 32.1213377,34.1113915 33.2439073,33.1629447 C34.4839073,32.1140936 34.8756159,30.7059447 34.9010728,29.1102638 Z M30.9256821,16.9754553 C31.4389272,17.0766894 31.9562781,17.1580085 32.4629536,17.280817 C36.4079603,18.2334128 39.391351,21.5326468 39.9431921,25.5811787 C40.3225828,28.3601362 39.9571523,31.0337106 38.6079338,33.508966 C37.1371788,36.2066043 34.8485166,37.7583064 31.8380265,38.239583 C29.9862384,38.535817 28.2050728,38.3466255 26.4928874,37.5516894 C23.416702,36.1227957 21.6191126,32.7779234 22.1537086,29.4073277 C22.4238808,27.705434 23.5448079,26.7627957 25.0804371,26.2367106 C26.8689934,25.6243277 28.7330993,25.5330511 30.5963841,25.4890723 C31.9956954,25.4567106 33.396649,25.4832638 34.8345563,25.4832638 C34.7614702,24.7621787 34.5077219,24.1431574 34.1250464,23.5830511 C33.17,22.1865191 31.7723311,21.5202 30.1644371,21.3417957 C28.2510596,21.1310298 26.3647815,21.3384766 24.592649,22.1607957 C24.1212848,22.3790298 23.7016556,22.713434 23.2590331,22.9939021 C23.1309272,23.0735617 23.0028212,23.1515617 22.873894,23.2312213 C22.8279073,23.208817 22.7810993,23.1864128 22.7334702,23.1648383 C22.8229801,22.1898383 22.792596,21.1841362 23.0290993,20.2473064 C23.4158808,18.7171787 24.6189272,17.9305404 26.0395894,17.5231149 C26.8862384,17.280817 27.778053,17.1978383 28.6493377,17.0418383 C28.7577351,17.0219234 28.8653113,16.9978596 28.9728874,16.9754553 L30.9256821,16.9754553 Z" id="Fill-3" fill="#5C2D90"></path>
                    <path d="M60.3163099,38.3724319 C59.7800715,38.2711979 59.2372636,38.196517 58.7084159,38.0645809 C57.4889457,37.7583894 56.3745881,37.2430915 55.4959126,36.2979638 C54.9728132,35.7353681 54.6525483,35.080666 54.6492636,34.2940277 C54.6451576,33.5530277 54.6484424,32.8120277 54.6484424,31.9913681 C54.8110384,32.0726872 54.9136874,32.1050489 54.9949854,32.1664532 C56.4098993,33.2410277 58.0514623,33.676666 59.7685748,33.8932404 C60.8311974,34.027666 61.8905351,34.0052617 62.9342702,33.7314319 C63.9977139,33.4526234 64.5725483,32.7589213 64.5971841,31.7258362 C64.6103232,31.1458149 64.3803894,30.6944106 63.8794623,30.4039851 C63.1058993,29.9550702 62.2436477,29.7949213 61.381396,29.6497085 C59.9779788,29.4123894 58.5663497,29.2281766 57.2319126,28.6771979 C54.3380318,27.483134 53.6129192,25.0950064 54.2600185,22.4919638 C54.8208927,20.2357723 56.3286013,18.7363468 58.392257,17.8443255 C60.9116742,16.7556447 63.510747,16.6228787 66.1065351,17.5738149 C67.5074887,18.088283 68.6317007,18.9960702 68.9749589,20.529517 C69.1704026,21.4016234 69.1014225,22.3334745 69.1548,23.3242404 C68.9782437,23.2487298 68.8805219,23.2304745 68.8140053,23.1740489 C67.538694,22.089517 66.0096344,21.6638362 64.404204,21.4555596 C63.2430384,21.3045383 62.0794093,21.3144957 60.9379523,21.6074106 C60.1504291,21.8082191 59.4581642,22.1575596 59.1789589,23.0230277 C58.8808662,23.9482404 59.1452901,24.6411128 60.0625616,24.9199213 C61.1342172,25.2460277 62.2395417,25.4700702 63.3399391,25.6899638 C64.8821377,25.9986447 66.384098,26.3961128 67.6651576,27.3785809 C68.9889192,28.3942404 69.5818199,29.7658787 69.5851046,31.4204745 C69.5892106,33.1746447 69.1449457,34.7719851 67.9090517,36.0647936 C66.7593828,37.2663255 65.2976609,37.8480064 63.7061907,38.1425809 C63.2044424,38.2346872 62.6985881,38.2969213 62.193555,38.3724319 L60.3163099,38.3724319 Z" id="Fill-5" fill="#5C2D90"></path>
                    <path d="M88.8819682,33.0461106 C88.842551,33.9198766 88.8589748,34.7463447 88.7563258,35.5570468 C88.5920874,36.8515149 87.7068424,37.5294511 86.5325377,37.7485149 C85.4206437,37.9567915 84.2800079,38.0480681 83.1484053,38.095366 C81.937147,38.1451532 80.7193192,38.1210894 79.5080609,38.0605149 C77.643955,37.9659191 75.8783921,37.5120255 74.3353722,36.386834 C72.7619682,35.2400681 71.8611205,33.6460468 71.3651205,31.7873234 C71.0284318,30.5218979 70.9027894,29.2274298 70.9101801,27.9221745 C70.9257828,25.4178766 70.8904715,22.9110894 71.0054384,20.4109404 C71.0924848,18.5488979 71.333094,16.6885149 71.602445,14.8414085 C71.7469748,13.8506426 72.2273722,12.9777064 73.1356106,12.4308766 C73.8286967,12.0143234 74.5965113,11.9288553 75.3758225,11.9280255 C79.7700212,11.9230468 84.1633987,11.9255362 88.5575974,11.926366 C88.6183656,11.926366 88.6791338,11.9388128 88.8236636,11.9554085 C88.7793192,12.8001319 88.8072397,13.6523234 88.6725642,14.4771319 C88.5099682,15.4687277 87.7889616,16.0155574 86.854445,16.2088979 C86.2352662,16.3375149 85.5906305,16.3881319 84.9566702,16.3931106 C82.3534914,16.4130255 79.7486702,16.4014085 77.1454914,16.4014085 C76.5246702,16.4014085 76.4901801,16.3980894 76.4417298,17.0121319 C76.2988424,18.8119404 76.1855179,20.6134085 76.0557695,22.4713021 L85.9815179,22.4713021 C85.9815179,23.3392596 86.0611735,24.1665574 85.9601669,24.9706213 C85.8435576,25.8950043 85.1233722,26.4791745 84.1395841,26.6044723 C83.6074517,26.6725149 83.0687497,26.714834 82.5333325,26.7181532 C80.5673987,26.7314298 78.6022861,26.7239617 76.6371735,26.7239617 L76.2134384,26.7239617 C76.1764848,26.7729191 76.1493854,26.7911745 76.1485642,26.8102596 C76.1173589,28.161983 76.0730146,29.5161957 76.3908159,30.8455149 C76.7480344,32.3391319 77.6628424,33.2585362 79.1721934,33.422834 C80.5600079,33.5730255 81.9658887,33.6028979 83.3635576,33.6161745 C85.1923523,33.6344298 87.0104715,33.4676426 88.8819682,33.0461106" id="Fill-7" fill="#5C2D90"></path>
                    <path d="M52.9552265,22.4383596 C52.7064053,22.3537213 52.5101404,22.2906574 52.3163391,22.2226149 C51.1872,21.8259766 50.0317828,21.6716362 48.8500874,21.9031468 C47.5575311,22.1562319 46.8381669,23.0258489 46.5721007,24.2705298 C46.4259285,24.955934 46.3585907,25.6712106 46.355306,26.3740404 C46.333955,30.053317 46.3454517,33.7325936 46.3454517,37.4127 L46.3454517,37.908083 C45.008551,37.9097426 43.6749351,38.052466 42.4973457,37.2367851 C41.7911205,36.7480404 41.4355444,36.0452106 41.3255046,35.2096149 C41.2786967,34.8611043 41.2745907,34.503466 41.2754119,34.1499766 C41.2819815,30.9635936 41.2524185,27.7763809 41.3181139,24.5916574 C41.3575311,22.6350191 41.9652132,20.8451681 43.3119682,19.3739553 C44.3754119,18.2122532 45.7188821,17.5907426 47.2438358,17.3600617 C48.3622993,17.1916149 49.4856901,17.148466 50.5877298,17.4978064 C52.1126834,17.9807426 52.9494781,19.1283383 52.9552265,20.743934 C52.9568689,21.2841255 52.9552265,21.8259766 52.9552265,22.4383596" id="Fill-9" fill="#5C2D90"></path>
                    <path d="M123.25058,33.9889149 C123.171746,34.8095745 123.164355,35.6360426 122.996832,36.4276596 C122.779216,37.4599149 121.990872,37.9362128 121.010368,38.0440851 C119.621732,38.1984255 118.258554,38.0673191 116.988991,37.4192553 C115.397521,36.6068936 114.601785,35.2120213 114.300408,33.4968511 C114.196117,32.9035532 114.145203,32.292 114.144381,31.6887447 C114.131242,27.1979362 114.136991,22.7071277 114.136991,18.2171489 L114.136991,17.8877234 C115.124885,17.8860638 116.089785,17.7914681 117.021838,18.1034681 C118.306183,18.5341277 118.922077,19.5124468 119.098633,20.8110638 C119.156117,21.2350851 119.165971,21.668234 119.166792,22.097234 C119.171719,25.0695319 119.165971,28.0418298 119.174183,31.0149574 C119.174183,31.4057872 119.194713,31.8024255 119.26862,32.1841277 C119.452567,33.1408723 120.028223,33.6926809 120.992302,33.8146596 C121.696064,33.902617 122.409679,33.9266809 123.25058,33.9889149" id="Fill-11" fill="#5C2D90"></path>
                    <path d="M119.575253,12.987 C119.568683,14.6084043 118.201399,15.9875106 116.611571,15.9792128 C115.025849,15.9700851 113.693054,14.6050851 113.688127,12.987 C113.6832,11.3664255 115.017637,10.0279787 116.629637,10.0362766 C118.249028,10.0437447 119.581823,11.3788723 119.575253,12.987" id="Fill-13" fill="#5C2D90"></path>
                    <g id="Group-17" transform="translate(87.046358, 0.579026)">
                        <mask id="mask-2" fill="white">
                            <use xlink:href="#path-1"></use>
                        </mask>
                        <g id="Clip-16"></g>
                        <path d="M30.242943,1.38690638 C30.2281616,1.25248085 30.080347,1.26658723 30.0146517,1.18360851 C29.9859099,1.14626809 29.9185722,1.08569362 29.8413801,1.11224681 C29.8380954,1.11556596 29.836453,1.11805532 29.8331682,1.12054468 C29.832347,1.11722553 29.8307046,1.1130766 29.8298834,1.10809787 L29.8413801,1.11224681 C29.8348106,1.09233191 29.8216715,1.07905532 29.8019629,1.07324681 L29.8060689,1.08403404 C29.8011417,1.08320426 29.797857,1.08237447 29.797857,1.08237447 C29.7962146,1.07905532 29.7986781,1.07573617 29.8019629,1.07324681 C29.8183868,1.04420426 29.8348106,1.01599149 29.857804,0.976161702 C29.9152874,0.99773617 29.9883735,1.03258723 29.999049,0.921395745 C29.9522411,0.858331915 29.8668371,0.862480851 29.8224927,0.810204255 C29.7592609,0.850034043 29.8134596,0.931353191 29.7477642,0.957076596 C29.7321616,0.951268085 29.7173801,0.944629787 29.7017775,0.938821277 C29.6976715,0.852523404 29.7617245,0.799417021 29.8027841,0.734693617 C29.8249563,0.651714894 29.8873669,0.593629787 29.9374596,0.528076596 C29.939102,0.518119149 29.9407444,0.506502128 29.9407444,0.495714894 C29.9497775,0.482438298 29.9588106,0.469161702 29.9719497,0.460034043 C29.9744132,0.408587234 29.9522411,0.37373617 29.9029695,0.357970213 C29.8216715,0.250097872 29.7223073,0.21773617 29.6015921,0.288268085 C29.5605325,0.284119149 29.520294,0.279970213 29.4718437,0.275821277 C29.4587046,0.300714894 29.4447444,0.32892766 29.4283205,0.357140426 C29.3527709,0.313991489 29.2649033,0.364608511 29.1877113,0.324778723 C29.1458305,0.390331915 29.2065987,0.445097872 29.2074199,0.50567234 C29.2098834,0.513970213 29.2156318,0.520608511 29.2205589,0.528906383 C29.1860689,0.52973617 29.1540424,0.54467234 29.1253007,0.563757447 C29.088347,0.586991489 29.0374331,0.582842553 29.0119762,0.626821277 C29.0119762,0.626821277 29.0103338,0.630970213 29.0103338,0.640097872 L29.011155,0.643417021 C28.9996583,0.645906383 28.9848768,0.643417021 28.9742013,0.649225532 C28.9668106,0.65586383 28.9602411,0.66167234 28.9536715,0.668310638 C28.9544927,0.677438298 28.9544927,0.687395745 28.9544927,0.696523404 C28.9101483,0.7098 28.8641616,0.721417021 28.8198172,0.734693617 C28.776294,0.699012766 28.7294861,0.616034043 28.6917113,0.73967234 C28.716347,0.77286383 28.7516583,0.786970213 28.7861483,0.80273617 C28.7836848,0.825140426 28.7836848,0.847544681 28.7836848,0.869119149 C28.7664397,0.889034043 28.7483735,0.908948936 28.7335921,0.925544681 C28.7401616,0.955417021 28.7467311,0.981970213 28.7524795,1.0085234 C28.7516583,1.01931064 28.7500159,1.03092766 28.7491947,1.04171489 C28.7615126,1.04254468 28.7738305,1.04254468 28.7861483,1.04420426 L28.7861483,1.0475234 C28.7738305,1.04171489 28.763155,1.0350766 28.7491947,1.04171489 C28.7278437,1.04254468 28.7056715,1.04254468 28.6843205,1.04337447 C28.6186252,1.04254468 28.5701748,0.995246809 28.5135126,0.974502128 C28.4913404,0.928034043 28.4699894,0.883225532 28.4494596,0.837587234 C28.506943,0.816842553 28.5003735,0.77867234 28.4798437,0.73386383 C28.4995523,0.731374468 28.5324,0.738842553 28.5299364,0.712289362 L28.4560291,0.701502128 L28.3008238,0.667480851 L28.3024662,0.664991489 C28.2614066,0.596119149 28.2523735,0.586161702 28.2195258,0.618523404 C28.2096715,0.629310638 28.2006384,0.643417021 28.1850358,0.642587234 L28.1973536,0.644246809 L28.1957113,0.645076596 L27.9780954,0.643417021 C28.1029166,0.713948936 28.0134066,0.786970213 28.0084795,0.867459574 C27.9403205,0.825140426 28.0051947,0.745480851 27.9403205,0.708970213 C27.908294,0.761246809 27.8204265,0.727225532 27.8031815,0.804395745 C27.8606649,0.87492766 27.7489828,0.910608511 27.767049,0.972842553 C27.728453,1.01433191 27.7259894,1.06660851 27.7169563,1.11888511 C27.7103868,1.16618298 27.6988901,1.21762979 27.6331947,1.21348085 C27.6208768,1.13714043 27.6487974,1.06328936 27.6561881,0.990268085 C27.5921351,0.972012766 27.5740689,1.03424681 27.5313669,1.04171489 L27.5313669,1.0085234 C27.565857,0.935502128 27.6151285,0.867459574 27.6052742,0.75792766 C27.5330093,0.854182979 27.4164,0.908119149 27.4968768,1.04337447 C27.4919497,1.06162979 27.4812742,1.07324681 27.4632079,1.07656596 C27.3925854,1.07573617 27.3219629,1.06826809 27.2595523,1.11058723 C27.2464132,1.05997021 27.2061748,1.05665106 27.1569033,1.05167234 L27.1569033,0.972012766 C27.1569033,0.961225532 27.1601881,0.950438298 27.1610093,0.940480851 C27.2529828,0.944629787 27.3367444,0.921395745 27.4188636,0.868289362 C27.3104662,0.81186383 27.2193139,0.823480851 27.1248768,0.901480851 C27.1027046,0.903970213 27.0797113,0.906459574 27.0567179,0.908119149 C26.9762411,0.905629787 26.8941219,0.891523404 26.8210358,0.941310638 C26.7684795,1.00188511 26.6370887,0.981140426 26.6485854,1.10892766 C26.5730358,1.11556596 26.5451152,1.2234383 26.4703868,1.20850213 C26.3899099,1.19273617 26.3537775,1.23754468 26.3102543,1.28318298 C26.2995788,1.29397021 26.2864397,1.30475745 26.2741219,1.31554468 C26.1542278,1.34458723 25.9998437,1.32301277 25.9867046,1.51386383 C25.8766649,1.50390638 25.8011152,1.53377872 25.800294,1.6590766 C25.7748371,1.65160851 25.7534861,1.62588511 25.7206384,1.63584255 C25.6910755,1.66571489 25.6804,1.71550213 25.6319497,1.72794894 C25.4808503,1.73458723 25.4734596,1.74703404 25.5358702,1.89639574 C25.5720026,1.95365106 25.5120556,1.92377872 25.4997377,1.93705532 C25.4225457,1.98020426 25.3092212,1.96194894 25.2780159,2.08060851 C25.2886914,2.11297021 25.3363205,2.12956596 25.3281086,2.17437447 C25.2969033,2.28556596 25.3166119,2.38762979 25.3749166,2.48637447 C25.3823073,2.50048085 25.3650623,2.52786383 25.3601351,2.5494383 C25.3396053,2.5751617 25.3313934,2.61250213 25.2927974,2.61831064 C25.2468106,2.54860851 25.2041086,2.63822553 25.158943,2.6208 C25.124453,2.62909787 25.1252742,2.6598 25.1219894,2.68635319 C25.0489033,2.70211915 24.9741748,2.71456596 24.9019099,2.73448085 C24.8616715,2.74609787 24.8148636,2.76435319 24.855102,2.82409787 C24.7680556,2.84733191 24.7729828,2.94773617 24.7171417,2.99669362 C24.6949695,3.00914043 24.6744397,3.02241702 24.6514464,3.03486383 C24.5841086,3.03735319 24.5594728,2.9261617 24.4740689,2.97428936 C24.4091947,3.0630766 24.5143073,3.10788511 24.5422278,3.16762979 C24.500347,3.22820426 24.4387576,3.18173617 24.397698,3.21824681 C24.457645,3.25309787 24.4420424,3.31284255 24.444506,3.36677872 C24.4486119,3.3750766 24.4560026,3.37673617 24.461751,3.38171489 C24.457645,3.38337447 24.4543603,3.38420426 24.4510755,3.38503404 C24.4461483,3.38005532 24.444506,3.37341702 24.444506,3.36677872 C24.3788106,3.42071489 24.4806384,3.44394894 24.465857,3.48958723 C24.4477907,3.50701277 24.4280821,3.52526809 24.4091947,3.54435319 C24.3714199,3.54601277 24.3303603,3.53771489 24.3024397,3.57505532 C24.2934066,3.57339574 24.2843735,3.57505532 24.2761616,3.58003404 C24.2646649,3.58086383 24.252347,3.5825234 24.2400291,3.5825234 C24.2055391,3.59165106 24.175155,3.61571489 24.1776185,3.65056596 C24.1858305,3.72773617 24.1579099,3.79992766 24.1521616,3.88041702 C24.0519762,3.89535319 24.008453,3.97086383 23.9780689,4.05965106 C23.9386517,4.09118298 23.9386517,4.16420426 23.8680291,4.16171489 C23.803155,4.17250213 23.8089033,4.10860851 23.7850887,4.08122553 C23.6594464,4.07541702 23.5986781,4.1550766 23.5535126,4.25631064 C23.6093536,4.26626809 23.576506,4.35588511 23.6389166,4.35837447 C23.6914728,4.32684255 23.6758702,4.24303404 23.7464927,4.2330766 C23.7440291,4.26709787 23.7415656,4.30028936 23.739102,4.33348085 C23.734996,4.35422553 23.7333536,4.37497021 23.7292477,4.39488511 C23.6610887,4.50192766 23.7161086,4.57162979 23.8015126,4.63137447 C23.8187576,4.64050213 23.8327179,4.65377872 23.8327179,4.67618298 C23.7924795,4.68862979 23.8105457,4.73509787 23.7875523,4.75750213 C23.7497775,4.75418298 23.7826252,4.62722553 23.6996848,4.70688511 C23.6693007,4.71601277 23.632347,4.70688511 23.6036053,4.74837447 C23.6011417,4.76497021 23.597857,4.7915234 23.5953934,4.8180766 C23.5945722,4.84545957 23.5945722,4.87367234 23.5953934,4.90105532 C23.5962146,4.94918298 23.5625457,4.94918298 23.5305192,4.95167234 C23.4065192,4.92760851 23.3276848,4.99648085 23.2611682,5.08775745 C23.2143603,5.14750213 23.2283205,5.22467234 23.1995788,5.29105532 C23.1667311,5.36822553 23.0813272,5.34001277 23.0312344,5.37984255 C23.0566914,5.40224681 23.0731152,5.41635319 23.0887179,5.43045957 C23.0870755,5.49850213 23.0846119,5.56654468 23.0837907,5.63458723 C23.0673669,5.63873617 23.0575126,5.64786383 23.0599762,5.66694894 C23.0583338,5.73748085 23.0024927,5.80718298 23.0575126,5.87854468 C23.0024927,5.93414043 23.0263073,6.07188511 22.8908106,6.04450213 C22.8949166,6.02458723 22.8973801,6.00467234 22.9014861,5.98392766 C22.8398967,5.96567234 22.7758437,5.9880766 22.7232874,5.94409787 C22.6814066,5.90841702 22.6756583,5.97148085 22.6477377,5.97645957 C22.559049,6.07935319 22.4490093,6.16897021 22.4481881,6.32414043 C22.4301219,6.34405532 22.4063073,6.36231064 22.3939894,6.38471489 C22.3677113,6.43367234 22.3011947,6.4884383 22.4013801,6.52992766 C22.4145192,6.56394894 22.4514728,6.58967234 22.435049,6.63199149 L22.4432609,6.62618298 L22.4514728,6.62784255 C22.4490093,6.63199149 22.4473669,6.63697021 22.4457245,6.64028936 C22.4407974,6.6378 22.4383338,6.63448085 22.435049,6.63199149 C22.4046649,6.61954468 22.375102,6.60626809 22.3348636,6.58967234 C22.2847709,6.70750213 22.1517377,6.74982128 22.109857,6.87345957 C22.0737245,6.92241702 22.0433404,6.9755234 22.0252742,7.0344383 C21.985857,7.08339574 21.8717113,7.07177872 21.9053801,7.18214043 C21.8832079,7.22777872 21.8380424,7.25184255 21.8010887,7.28254468 C21.6417775,7.40120426 21.5144927,7.54724681 21.4282675,7.72814043 C21.4028106,7.73477872 21.3716053,7.72731064 21.3609298,7.76382128 C21.3502543,7.75967234 21.3404,7.75967234 21.3289033,7.76299149 C21.3157642,7.76299149 21.3026252,7.7621617 21.2894861,7.76133191 C21.2697775,7.7621617 21.2492477,7.7621617 21.2295391,7.7621617 C21.1745192,7.77792766 21.1572742,7.83601277 21.1162146,7.86588511 C21.0726914,7.89160851 21.1268901,7.90903404 21.1211417,7.93226809 C21.0767974,7.96628936 21.0340954,8.0028 20.9889298,8.03350213 C20.9527974,8.05839574 20.9840026,8.08245957 20.9864662,8.10486383 C20.9544397,8.19282128 20.861645,8.19945957 20.7992344,8.24426809 C20.8156583,8.27662979 20.8246914,8.34550213 20.8181219,8.37454468 C20.7318967,8.39031064 20.7926649,8.47909787 20.7499629,8.51560851 C20.7294331,8.5164383 20.7179364,8.52556596 20.7179364,8.54714043 C20.6842675,8.65501277 20.5955788,8.72554468 20.5405589,8.82014043 C20.5241351,8.82677872 20.5134596,8.83839574 20.5118172,8.85748085 C20.5118172,8.86992766 20.5118172,8.88154468 20.510996,8.89399149 C20.493751,8.89399149 20.4822543,8.90311915 20.4756848,8.91888511 C20.4641881,8.9321617 20.4518702,8.9454383 20.4411947,8.95871489 C20.4231285,8.96286383 20.4140954,8.97614043 20.4116318,8.99439574 L20.4116318,8.99356596 C20.3853536,8.99771489 20.3508636,8.98775745 20.344294,9.02924681 C20.3360821,9.07322553 20.3828901,9.1205234 20.3401881,9.16533191 C20.3295126,9.16533191 20.3196583,9.1661617 20.3106252,9.16699149 C20.288453,9.16782128 20.267102,9.16948085 20.245751,9.17114043 C20.2087974,9.17777872 20.185804,9.20101277 20.1726649,9.23586383 C20.125857,9.26075745 20.1439232,9.30390638 20.1422808,9.34124681 C20.1373536,9.36862979 20.1611682,9.38024681 20.1718437,9.39933191 C20.1751285,9.40348085 20.1775921,9.4068 20.1808768,9.41094894 C20.1808768,9.41094894 20.1751285,9.41094894 20.1726649,9.41177872 L20.1718437,9.39933191 C20.160347,9.4001617 20.1504927,9.40348085 20.1398172,9.40845957 C20.0995788,9.41260851 20.104506,9.44662979 20.096294,9.47318298 C20.0585192,9.50222553 20.0724795,9.54371489 20.0708371,9.58022553 L20.0691947,9.58022553 L20.0691947,9.58271489 C20.019102,9.57690638 19.9878967,9.59848085 19.9714728,9.64577872 C19.9665457,9.65573617 19.9649033,9.66569362 19.9706517,9.67565106 C19.9632609,9.68975745 19.9517642,9.6930766 19.9386252,9.68311915 C19.8983868,9.68975745 19.8975656,9.71797021 19.9024927,9.74950213 C19.9008503,9.76028936 19.9000291,9.77273617 19.8992079,9.7835234 C19.8877113,9.78020426 19.8770358,9.78020426 19.8663603,9.78269362 C19.8474728,9.79928936 19.7908106,9.74701277 19.8023073,9.81920426 C19.8023073,9.86484255 19.8014861,9.90965106 19.7998437,9.95528936 C19.7899894,9.95528936 19.7801351,9.95694894 19.7694596,9.9594383 C19.7341483,9.96773617 19.7316848,9.99594894 19.7341483,10.0258213 C19.7300424,10.0366085 19.7300424,10.0473957 19.7341483,10.058183 C19.7300424,10.0656511 19.7292212,10.0731191 19.7308636,10.0797574 C19.7144397,10.0905447 19.6996583,10.1029915 19.6980159,10.1253957 C19.6766649,10.1278851 19.6651682,10.1411617 19.6627046,10.1619064 L19.6980159,10.1619064 L19.6971947,10.163566 C19.685698,10.1527787 19.6750225,10.1502894 19.6627046,10.1619064 L19.6290358,10.1619064 C19.6068636,10.1619064 19.5970093,10.1743532 19.5945457,10.1950979 C19.5756583,10.1975872 19.5559497,10.2009064 19.5321351,10.2033957 C19.5452742,10.2291191 19.5543073,10.2473745 19.5625192,10.2648 C19.5625192,10.2772468 19.5625192,10.288034 19.5633404,10.2996511 C19.561698,10.3104383 19.5592344,10.3212255 19.5592344,10.3320128 C19.5502013,10.3303532 19.540347,10.3303532 19.5296715,10.3328426 C19.4721881,10.3203957 19.4434464,10.3510979 19.4294861,10.4017149 C19.4253801,10.4100128 19.4212742,10.4199702 19.4155258,10.4290979 C19.377751,10.4556511 19.3539364,10.4896723 19.3613272,10.5394596 C19.3588636,10.549417 19.3588636,10.5602043 19.3629695,10.5709915 C19.3720026,10.5726511 19.381857,10.5734809 19.3917113,10.5734809 C19.381857,10.5693319 19.3728238,10.5643532 19.3629695,10.5709915 C19.3621483,10.5950553 19.3613272,10.6182894 19.3613272,10.6423532 C19.3588636,10.6514809 19.3555788,10.6614383 19.3539364,10.670566 C19.3432609,10.6722255 19.3342278,10.6747149 19.3243735,10.6772043 C19.3038437,10.6788638 19.2841351,10.6805234 19.2636053,10.6830128 C19.1363205,10.6871617 19.1149695,10.7867362 19.0878702,10.8813319 C19.0205325,10.9145234 19.0147841,10.9618213 19.0583073,11.0207362 C18.941698,11.0539277 18.9260954,11.0929277 18.9983603,11.1717574 C19.0008238,11.2090979 18.9548371,11.2132468 18.9474464,11.2431191 C18.9786517,11.2696723 19.0147841,11.2953957 18.9540159,11.3244383 C18.9515523,11.3128213 18.9482675,11.3003745 18.9334861,11.3028638 C18.9285589,11.3036936 18.9285589,11.3178 18.9260954,11.3252681 L18.9408768,11.3244383 L18.9515523,11.3269277 L18.9515523,11.3277574 C18.9441616,11.3202894 18.9359497,11.3186298 18.9260954,11.3252681 C18.877645,11.3211191 18.8300159,11.3186298 18.7856715,11.3144809 C18.7437907,11.3443532 18.7495391,11.3858426 18.7462543,11.4240128 C18.6986252,11.4563745 18.672347,11.5020128 18.6674199,11.5559489 C18.6649563,11.6148638 18.7355788,11.5916298 18.7462543,11.6331191 C18.715049,11.6472255 18.6838437,11.6605021 18.6534596,11.6737787 C18.5064662,11.6588426 18.4744397,11.7650553 18.4432344,11.8745872 C18.3364795,11.996566 18.2716053,12.1517362 18.1443205,12.2562894 C18.1303603,12.2936298 18.1632079,12.3193532 18.1681351,12.3517149 C18.1049033,12.4023319 18.0433139,12.4521191 17.9784397,12.503566 C17.975155,12.5558426 17.971049,12.6064596 17.966943,12.6570766 C17.9702278,12.659566 17.9726914,12.6620553 17.9759762,12.6645447 L17.971049,12.6678638 L17.966943,12.6570766 C17.9119232,12.6388213 17.8569033,12.5948426 17.8027046,12.6603957 C17.7624662,12.7682681 17.7452212,12.8852681 17.6606384,12.9732255 C17.6893801,12.9997787 17.7090887,13.0188638 17.7296185,13.0379489 C17.7320821,13.0387787 17.7345457,13.0404383 17.7370093,13.0412681 L17.7353669,13.0429277 L17.7296185,13.0379489 C17.6688503,13.0387787 17.6146517,13.0553745 17.5645589,13.1084809 L17.5645589,13.2138638 C17.5234993,13.2852255 17.4545192,13.3366723 17.4274199,13.4171617 C17.3822543,13.3947574 17.3362675,13.3682043 17.2919232,13.4528426 C17.3436583,13.5042894 17.3165589,13.5839489 17.3264132,13.6586298 C17.3247709,13.6685872 17.3231285,13.6793745 17.3231285,13.6901617 C17.2993139,13.724183 17.2771417,13.7582043 17.2541483,13.7913957 C17.2155523,13.7963745 17.1753139,13.7830979 17.1301483,13.8187787 C17.1244,13.8967787 17.0726649,13.9639915 17.021751,14.0312043 C16.9675523,14.1050553 16.9314199,14.1847149 16.9182808,14.2751617 C16.9166384,14.3025447 16.9117113,14.3282681 16.8854331,14.344034 C16.8427311,14.3548213 16.8271285,14.3042043 16.7885325,14.3008851 C16.7753934,14.332417 16.790996,14.3697574 16.7597907,14.4012894 C16.7302278,14.4087574 16.6940954,14.4178851 16.6628901,14.426183 C16.6440026,14.4668426 16.6440026,14.4958851 16.6817775,14.5158 C16.6727444,14.566417 16.7203735,14.6029277 16.7179099,14.6527149 C16.6850623,14.660183 16.6571417,14.6261617 16.632506,14.6386085 C16.5372477,14.7522894 16.6628901,14.8095447 16.6817775,14.8925234 C16.649751,14.9514383 16.602943,14.995417 16.5487444,15.0327574 C16.4912609,15.046034 16.4649828,14.9630553 16.4001086,14.9846298 C16.3738305,15.0443745 16.3500159,15.1041191 16.3450887,15.1696723 C16.3032079,15.1812894 16.3409828,15.2111617 16.3319497,15.229417 C16.2884265,15.2534809 16.2621483,15.2958 16.2325854,15.3339702 C16.1118702,15.3223532 16.1094066,15.3265021 16.1053007,15.4766936 C16.0650623,15.4932894 16.0240026,15.5098851 15.9837642,15.5264809 C16.0001881,15.5787574 16.0166119,15.6268851 16.0330358,15.6750128 C16.0240026,15.6791617 16.0166119,15.6833106 16.0075788,15.6866298 C15.965698,15.6808213 15.9213536,15.670034 15.8827576,15.7231404 C15.909857,15.7538426 15.8712609,15.7845447 15.8720821,15.8210553 C15.8712609,15.8542468 15.8696185,15.8874383 15.867155,15.9206298 C15.803102,15.9803745 15.845804,16.0575447 15.8351285,16.126417 C15.7612212,16.1629277 15.8039232,16.2450766 15.7661483,16.2956936 C15.7078437,16.3280553 15.6240821,16.3363532 15.6314728,16.4342681 C15.5189695,16.5653745 15.4959762,16.7172255 15.5312874,16.8823532 C15.5403205,16.879034 15.5501748,16.8765447 15.5600291,16.8757149 C15.5592079,16.8782043 15.5616715,16.8806936 15.5616715,16.8840128 C15.5518172,16.8806936 15.5419629,16.8748851 15.5312874,16.8823532 C15.5173272,16.9022681 15.5041881,16.9230128 15.491049,16.9437574 C15.431102,16.9653319 15.3703338,16.9860766 15.3079232,17.0093106 C15.2890358,17.0698851 15.2726119,17.1271404 15.2553669,17.1852255 C15.268506,17.2632255 15.1880291,17.3113532 15.1888503,17.3793957 C15.1913139,17.4482681 15.1494331,17.4814596 15.1165854,17.5254383 C15.1075523,17.5270979 15.0993404,17.530417 15.0911285,17.5337362 C14.9679497,17.5669277 14.9482411,17.6615234 14.9507046,17.7702255 C14.8932212,17.8166936 14.9301748,17.8822468 14.9153934,17.9386723 C14.8028901,18.0000766 14.8086384,18.1087787 14.806996,18.2149915 C14.7700424,18.2257787 14.7076318,18.2183106 14.7027046,18.2548213 C14.6895656,18.361034 14.5934861,18.3726511 14.5261483,18.4332255 C14.563102,18.482183 14.5877377,18.5361191 14.5442146,18.5942043 C14.503155,18.6182681 14.4612742,18.6431617 14.4456715,18.7070553 C14.4982278,18.7460553 14.5902013,18.7601617 14.5729563,18.860566 C14.5787046,18.8647149 14.5836318,18.8672043 14.5893801,18.8705234 C14.5877377,18.872183 14.5877377,18.8730128 14.5877377,18.8730128 C14.5811682,18.8696936 14.5770623,18.8655447 14.5729563,18.860566 C14.5302543,18.8597362 14.5121881,18.7892043 14.4538834,18.8199064 C14.4473139,18.8672043 14.4399232,18.9161617 14.4341748,18.9659489 C14.3766914,18.9833745 14.2921086,18.9410553 14.2707576,19.0389702 C14.2050623,19.1343957 14.2009563,19.2646723 14.0868106,19.3335447 C14.0531417,19.3542894 14.0736715,19.4082255 14.0687444,19.4472255 C14.0449298,19.4638213 14.0358967,19.4887149 14.0350755,19.5169277 C14.0145457,19.5418213 13.9948371,19.5667149 13.9726649,19.5916085 C13.8347046,19.7708426 13.7312344,19.9699915 13.6294066,20.1708 C13.5784927,20.2504596 13.5316848,20.3350979 13.4742013,20.4089489 C13.4323205,20.4637149 13.4224662,20.5193106 13.4265722,20.5823745 C13.4035788,20.6056085 13.3805854,20.627183 13.3575921,20.6495872 C13.194996,20.7524809 13.2073139,20.900183 13.2524795,21.0570128 L13.2574066,21.0595021 L13.2574066,21.0628213 L13.2524795,21.0570128 C13.2105987,21.0528638 13.1933536,20.9873106 13.1375126,21.0097149 C13.1104132,21.0553532 13.1251947,21.1167574 13.0808503,21.1607362 C13.0332212,21.208034 13.0586781,21.2769064 13.0529298,21.3366511 C13.0348636,21.3922468 12.9502808,21.4154809 12.9625987,21.4727362 C12.9782013,21.5582043 12.9182543,21.5922255 12.8837642,21.6445021 C12.8336715,21.6420128 12.7901483,21.6693957 12.7737245,21.7108851 C12.7187046,21.8478 12.6234464,21.9697787 12.6135921,22.1257787 C12.5298305,22.1315872 12.5364,22.2046085 12.5084795,22.2585447 C12.4592079,22.3523106 12.476453,22.4784383 12.3787311,22.5481404 C12.373804,22.6327787 12.4879497,22.6526936 12.4756318,22.7381617 C12.1988901,22.8800553 12.1455126,23.1879064 11.9853801,23.4202468 C12.0001616,23.4550979 12.0174066,23.4965872 12.0330093,23.5322681 C12.0067311,23.5820553 11.9771682,23.6135872 11.9352874,23.6335021 C11.8006119,23.7256085 11.7004265,23.852566 11.5961351,23.9753745 C11.5452212,24.0392681 11.4992344,24.1106298 11.3941219,24.0956936 L11.3941219,24.4566511 C11.4204,24.527183 11.3974066,24.6383745 11.5279762,24.628417 C11.5296185,24.6416936 11.5312609,24.6541404 11.5337245,24.667417 C11.5296185,24.6873319 11.5255126,24.7089064 11.5222278,24.7288213 C11.4573536,24.7362894 11.4015126,24.784417 11.3366384,24.7752894 C11.2939364,24.7279915 11.2471285,24.7006085 11.189645,24.6956298 C11.1797907,24.6848426 11.1715788,24.6723957 11.1625457,24.6607787 C11.1075258,24.6126511 11.086996,24.6732255 11.0541483,24.6964596 C10.9925589,24.718034 10.9810623,24.7678213 10.9859894,24.8259064 C10.9276848,24.8889702 10.945751,24.9760979 10.9153669,25.0474596 C10.9022278,25.1545021 10.8225722,25.1752468 10.7100689,25.1843745 C10.779049,25.2391404 10.783155,25.2930766 10.7511285,25.3528213 C10.7724795,25.4490766 10.6755788,25.4532255 10.6361616,25.5046723 C10.6624397,25.5113106 10.6878967,25.5179489 10.7133536,25.5245872 C10.7182808,25.5594383 10.7248503,25.5918 10.7716583,25.5776936 C10.8135391,25.5635872 10.8127179,25.5918 10.8151815,25.619183 C10.8053272,25.6938638 10.8660954,25.6357787 10.8833404,25.6565234 C10.843102,25.7054809 10.8447444,25.763566 10.8537775,25.8224809 C10.8488503,25.8689489 10.8447444,25.915417 10.8406384,25.9618851 C10.8151815,26.0033745 10.7478437,25.9519277 10.7289563,26.0183106 C10.7691947,26.0979702 10.8250358,26.0598 10.8792344,26.0340766 C10.9358967,26.0896723 10.898943,26.1137362 10.8472079,26.1353106 C10.8184662,26.1386298 10.8110755,26.1975447 10.7921881,26.1792894 C10.7429166,26.1286723 10.7133536,26.1734809 10.680506,26.1917362 C10.6148106,26.227417 10.6944662,26.282183 10.6632609,26.3269915 C10.612347,26.305417 10.5942808,26.3394383 10.5786781,26.3784383 C10.526943,26.4099702 10.4694596,26.4124596 10.411155,26.4108 C10.4095126,26.4132894 10.407049,26.4149489 10.4054066,26.4166085 L10.4054066,26.4066511 L10.411155,26.4108 C10.3996583,26.3900553 10.3889828,26.3676511 10.3774861,26.3452468 C10.3758437,26.3435872 10.3742013,26.3410979 10.3725589,26.3394383 L10.3758437,26.3394383 L10.3774861,26.3452468 C10.3963735,26.3410979 10.4095126,26.3328 10.407049,26.3112255 C10.407049,26.2962894 10.4062278,26.282183 10.4054066,26.2672468 C10.4185457,26.2465021 10.4546781,26.2398638 10.4440026,26.2033532 C10.4259364,26.1552255 10.5014861,26.1444383 10.4875258,26.0921617 C10.4522146,26.0722468 10.4136185,26.0523319 10.3774861,26.032417 C10.3610623,25.9735021 10.2937245,26.0423745 10.2731947,25.9917574 L10.2731947,25.8614809 C10.2731947,25.7909489 10.2066781,25.7693745 10.1713669,25.724566 C10.1491947,25.7137787 10.1253801,25.7021617 10.1032079,25.6913745 C10.0908901,25.6913745 10.0793934,25.6922043 10.0670755,25.693034 C10.0449033,25.6913745 10.0243735,25.6897149 10.0030225,25.6872255 L10.0038437,25.7038213 C9.99809536,25.7038213 9.9948106,25.7013319 9.98824106,25.7005021 C9.99316821,25.6963532 9.99809536,25.6913745 10.0030225,25.6872255 C10.0416185,25.6009277 10.0227311,25.5245872 9.9636053,25.4557149 C9.9324,25.4291617 9.9011947,25.4026085 9.86916821,25.3760553 C9.84699603,25.3129915 9.82482384,25.2449489 9.73367152,25.2748213 C9.72217483,25.2623745 9.71232053,25.2515872 9.70246623,25.2408 C9.70903576,25.2059489 9.76898278,25.2142468 9.75830728,25.1644596 C9.73859868,25.1262894 9.70739338,25.0955872 9.67126093,25.0682043 C9.66879735,25.0582468 9.66715497,25.0491191 9.66469139,25.0399915 C9.72628079,24.9877149 9.62116821,24.8947787 9.72135364,24.8491404 C9.63430728,24.8682255 9.64005563,24.749566 9.56696954,24.761183 C9.57189669,24.7113957 9.55957881,24.667417 9.52837351,24.6275872 C9.63348609,24.5794596 9.58010861,24.4649489 9.63348609,24.3910979 C9.55711523,24.4201404 9.46678411,24.4027149 9.42326093,24.4856936 C9.42079735,24.4931617 9.41997616,24.5014596 9.42079735,24.5097574 C9.41340662,24.5130766 9.4051947,24.5147362 9.39698278,24.511417 C9.40273113,24.4350766 9.40355232,24.3612255 9.33210861,24.3122681 C9.31814834,24.2566723 9.25984371,24.2160128 9.28612185,24.1504596 C9.29433377,24.0873957 9.29269139,24.0318 9.21796291,24.0110553 C9.21878411,23.9869915 9.2196053,23.9637574 9.2196053,23.9405234 C9.31814834,23.9148 9.26312848,23.7679277 9.37727417,23.747183 C9.27873113,23.7695872 9.19496954,23.6799702 9.10381722,23.7339064 C9.08821457,23.7330766 9.07261192,23.7305872 9.05700927,23.7289277 L9.05700927,23.6210553 C9.01594967,23.5720979 8.94614834,23.6276936 8.91904901,23.5646298 C8.96010861,23.5712681 8.98802914,23.552183 9.01184371,23.5189915 C9.00527417,23.501566 8.99541987,23.4833106 8.98802914,23.4642255 C9.03237351,23.4376723 9.07589669,23.4053106 9.04140662,23.3505447 C9.01841325,23.3107149 8.97817483,23.318183 8.95189669,23.3596723 C8.92890331,23.353034 8.90426755,23.3646511 8.90426755,23.3165234 C8.90426755,23.2493106 8.90180397,23.1762894 8.84842649,23.1198638 C8.84842649,23.0526511 8.77944636,23.0169702 8.77451921,22.9530766 C8.78190993,22.8916723 8.79504901,22.8294383 8.74659868,22.7779915 C8.73510199,22.7431404 8.7236053,22.7082894 8.7129298,22.6734383 C8.7022543,22.6195021 8.77369801,22.6087149 8.77041325,22.5597574 C8.7022543,22.4859064 8.64312848,22.5605872 8.5790755,22.5688851 C8.54704901,22.5124596 8.50106225,22.4693106 8.45014834,22.4286511 C8.44193642,22.378034 8.44029404,22.3307362 8.46575099,22.2809489 C8.48710199,22.2427787 8.49531391,22.1921617 8.44029404,22.1647787 C8.41401589,22.1448638 8.3819894,22.1290979 8.38527417,22.0809702 C8.44357881,22.0386511 8.49859868,21.988034 8.49777748,21.9067149 C8.45589669,21.8726936 8.39677086,21.9075447 8.37295629,21.8519489 C8.38363179,21.8088 8.44357881,21.7897149 8.43126093,21.7324596 C8.39102252,21.7233319 8.3614596,21.6436723 8.30726093,21.7133745 L8.20543311,21.7133745 C8.15616159,21.5731404 8.05515497,21.4544809 8.04037351,21.3266936 C8.04694305,21.2545021 8.10032053,21.2810553 8.11756556,21.2478638 C8.11428079,21.2138426 8.10032053,21.1839702 8.07157881,21.1632255 L8.06911523,21.1673745 L8.06665166,21.1665447 C8.06829404,21.1657149 8.06993642,21.1640553 8.07157881,21.1632255 C7.97221457,21.0736085 8.03544636,20.9184383 7.92951258,20.8396085 C7.95414834,20.7939702 8.01245298,20.7723957 7.96646623,20.7192894 C7.96564503,20.689417 7.97878411,20.654566 7.94593642,20.6263532 C7.90241325,20.6346511 7.85149934,20.6479277 7.8342543,20.5823745 C7.84739338,20.5201404 7.80058543,20.4703532 7.79894305,20.4114383 C7.81536689,20.3251404 7.7004,20.3226511 7.69711523,20.2338638 C7.8145457,20.1766085 7.80715497,20.1060766 7.74474437,19.9840979 C7.7110755,19.9168851 7.60924768,19.8903319 7.62977748,19.7949064 L7.63224106,19.7957362 C7.6798702,19.7642043 7.66016159,19.6920128 7.7004,19.679566 C7.69300927,19.574183 7.59200265,19.5600766 7.56079735,19.4853957 C7.56983046,19.4032468 7.47785695,19.3816723 7.46143311,19.3136298 C7.44747285,19.2588638 7.51152583,19.2323106 7.51152583,19.1858426 C7.49756556,19.1617787 7.48114172,19.1485021 7.45732715,19.1460128 C7.43679735,19.133566 7.41626755,19.1211191 7.39491656,19.1070128 C7.3489298,19.0563957 7.35303576,18.9966511 7.37274437,18.9485234 C7.33332715,18.8871191 7.25285033,18.9136723 7.23478411,18.8572468 C7.2142543,18.8041404 7.27338013,18.7850553 7.2659894,18.743566 C7.23149934,18.7203319 7.21096954,18.6888 7.20357881,18.6423319 C7.26270464,18.556034 7.29801589,18.4680766 7.17812185,18.3909064 C7.1419894,18.3676723 7.15841325,18.3178851 7.15430728,18.2788851 C7.14855894,18.236566 7.18797616,18.1942468 7.15759205,18.1502681 C7.19618808,18.1013106 7.12885033,18.0581617 7.15430728,18.0092043 L7.25531391,18.0092043 C7.21753907,17.9735234 7.25531391,17.9403319 7.21836026,17.9071404 C7.1526649,17.924566 7.08779073,17.8822468 7.0179894,17.8772681 C6.97282384,17.8225021 6.97036026,17.7345447 6.89234702,17.7262468 C6.88167152,17.6623532 6.94161854,17.7055021 6.9457245,17.6573745 C6.92026755,17.6283319 6.91862517,17.5660979 6.84964503,17.5652681 C6.8324,17.5096723 6.76341987,17.5727362 6.75602914,17.5337362 C6.74042649,17.4432894 6.65338013,17.4233745 6.61232053,17.3611404 C6.58932715,17.2972468 6.68047947,17.2740128 6.67144636,17.2383319 C6.52445298,17.144566 6.53759205,17.0043319 6.50967152,16.883183 C6.49406887,16.8516511 6.49078411,16.8085021 6.4505457,16.7968851 C6.41194967,16.8259277 6.3774596,16.8533106 6.34296954,16.8806936 C6.31833377,16.8806936 6.2953404,16.8823532 6.27234702,16.8823532 C6.26167152,16.8806936 6.25017483,16.8806936 6.23949934,16.8806936 L6.23949934,16.8466723 C6.27727417,16.8275872 6.30847947,16.8085021 6.27891656,16.7562255 C6.24689007,16.6973106 6.20583046,16.7014596 6.15655894,16.7238638 C6.16230728,16.7570553 6.16723444,16.7844383 6.17216159,16.8126511 C6.0982543,16.8143106 6.01777748,16.7910766 5.97096954,16.8757149 C5.91102252,16.7454383 5.85518146,16.8466723 5.79851921,16.8806936 C5.72461192,16.8798638 5.67205563,16.9462468 5.59979073,16.9487362 C5.55380397,16.9503957 5.52752583,16.9686511 5.52588344,17.0167787 C5.46018808,17.0209277 5.38135364,16.9893957 5.3542543,17.0864809 C5.2926649,17.0798426 5.24339338,17.039183 5.18426755,17.0574383 C5.12678411,17.0483106 5.08900927,17.0831617 5.05287682,17.1213319 C4.96829404,17.0964383 4.89767152,17.1628213 4.81555232,17.1570128 C4.81555232,17.1113745 4.79502252,17.0864809 4.74821457,17.0864809 C4.70222781,17.0873106 4.68005563,17.0632468 4.68005563,17.0176085 C4.64063841,16.9719702 4.6619894,16.8939702 4.59957881,16.8607787 C4.54702252,16.8723957 4.50349934,16.9097362 4.45340662,16.9047574 C4.43780397,16.9429277 4.49118146,16.9678213 4.44765828,17.0167787 C4.4353404,17.0333745 4.39592318,16.9703106 4.37457219,17.0167787 C4.32447947,17.0134596 4.27356556,17.027566 4.20458543,16.996034 C4.19473113,16.9927149 4.22347285,16.9296511 4.16188344,16.9396085 C4.12082384,17.0541191 4.0428106,17.1337787 3.91716821,17.1321191 C3.89335364,17.1918638 3.96233377,17.2059702 3.95247947,17.2458 C3.9393404,17.2715234 3.92209536,17.2839702 3.89828079,17.2914383 C3.88596291,17.2590766 3.86789669,17.2308638 3.80220132,17.2292043 C3.79316821,17.2756723 3.6913404,17.3229702 3.83258543,17.3611404 C3.83176424,17.3710979 3.83176424,17.3818851 3.83176424,17.3926723 C3.77674437,17.4067787 3.77428079,17.4723319 3.73075762,17.4972255 C3.69955232,17.495566 3.66752583,17.4939064 3.63632053,17.4922468 C3.6699894,17.4150766 3.62153907,17.3569915 3.59279735,17.2922681 C3.56323444,17.2906085 3.51396291,17.2897787 3.51806887,17.3072043 C3.54024106,17.4208851 3.43677086,17.3893532 3.39489007,17.425034 C3.3497245,17.3370766 3.30455894,17.2466298 3.25364503,17.144566 C3.2257245,17.2640553 3.21833377,17.3611404 3.32180397,17.4283532 L3.32180397,17.4656936 C3.3086649,17.4972255 3.28074437,17.4972255 3.25364503,17.4988851 C3.24214834,17.5088426 3.23229404,17.5179702 3.22243974,17.5279277 C3.19451921,17.530417 3.16495629,17.5270979 3.15674437,17.5644383 C3.15263841,17.5959702 3.15674437,17.624183 3.18877086,17.6407787 L3.18877086,17.6291617 L3.19205563,17.6299915 C3.19041325,17.6333106 3.18959205,17.6374596 3.18877086,17.6407787 L3.18877086,17.6723106 C3.14032053,17.7138 3.0811947,17.7287362 3.01878411,17.7353745 C3.0196053,17.6706511 2.97197616,17.6399489 2.92927417,17.6067574 C2.88000265,17.6017787 2.82744636,17.6756298 2.78392318,17.6001191 C2.80773775,17.4673532 2.71165828,17.503034 2.64514172,17.4980553 C2.62214834,17.4972255 2.60079735,17.4972255 2.57944636,17.495566 C2.57862517,17.4847787 2.57780397,17.4748213 2.57862517,17.464034 C2.59504901,17.4590553 2.62132715,17.4715021 2.62296954,17.4366511 C2.6057245,17.4341617 2.59094305,17.4308426 2.57451921,17.429183 C2.51949934,17.4026298 2.46283709,17.3188213 2.40617483,17.4275234 C2.36757881,17.4300128 2.32651921,17.4225447 2.29531391,17.4615447 C2.2854596,17.507183 2.27889007,17.5553106 2.3068106,17.6009489 C2.31994967,17.6615234 2.3273404,17.7245872 2.37579073,17.7702255 C2.36265166,17.8067362 2.41602914,17.8415872 2.37661192,17.8772681 C2.31338013,17.8698 2.25096954,17.8780979 2.20416159,17.8988426 C2.1614596,17.8698 2.19759205,17.8399277 2.17541987,17.8100553 C2.15489007,17.8092255 2.12779073,17.807566 2.10315497,17.8067362 C2.00789669,17.7420128 1.92495629,17.8308 1.83380397,17.8183532 C1.8108106,17.8780979 1.72540662,17.8963532 1.7590755,17.9760128 C1.65806887,17.9992468 1.59647947,18.080566 1.52667815,18.1469489 C1.50450596,18.1353319 1.48151258,18.1245447 1.4593404,18.1137574 C1.45769801,18.0656298 1.43716821,18.0274596 1.40103576,17.9876298 C1.36736689,18.0241404 1.33041325,17.9585872 1.29017483,17.998417 C1.19245298,18.0648 1.34847947,18.1676936 1.25486358,18.2448638 C1.17274437,18.2191404 1.17602914,18.1278638 1.14318146,18.0789064 C1.00932715,18.1469489 0.983049007,18.2564809 1.01753907,18.3875872 C0.996188079,18.4614383 1.04792318,18.5228426 1.04792318,18.5925447 C0.996188079,18.6099702 0.954307285,18.5668213 0.919817219,18.5693106 C0.82045298,18.6116298 0.850015894,18.7419064 0.750651656,18.7692894 C0.718625166,18.7643106 0.684135099,18.7601617 0.681671523,18.7145234 C0.730943046,18.638183 0.730943046,18.638183 0.694810596,18.5751191 C0.666068874,18.6166085 0.638148344,18.6572681 0.610227815,18.6970979 C0.561777483,18.7012468 0.510042384,18.6871404 0.446810596,18.7178426 C0.457486093,18.8265447 0.392611921,18.907034 0.305565563,18.9717574 C0.276002649,18.9833745 0.255472848,19.0190553 0.261221192,19.0356511 C0.297353642,19.1302468 0.2604,19.1767149 0.174174834,19.2082468 C0.156108609,19.2148851 0.148717881,19.2555447 0.135578808,19.2804383 C0.158572185,19.3542894 0.170068874,19.4339489 0.238227815,19.4853957 C0.280108609,19.4978426 0.301459603,19.5492894 0.349088742,19.5409915 C0.401645033,19.5335234 0.455843709,19.5268851 0.509221192,19.5202468 C0.466519205,19.6115234 0.535499338,19.7135872 0.482943046,19.804034 C0.557671523,19.8438638 0.491976159,19.8662681 0.47226755,19.8953106 C0.405750993,19.8762255 0.441062252,19.9542255 0.407393377,19.9658426 C0.353194702,20.0239277 0.350731126,20.0861617 0.381936424,20.1583532 C0.405750993,20.2164383 0.400002649,20.272034 0.325274172,20.2927787 C0.346625166,20.3185021 0.392611921,20.3002468 0.404929801,20.3409064 C0.390969536,20.3492043 0.347446358,20.3467149 0.367154967,20.3649702 C0.426280795,20.4213957 0.327737748,20.4130979 0.341698013,20.4446298 C0.274360265,20.5052043 0.202095364,20.5624596 0.17253245,20.6537362 C0.195525828,20.6753106 0.216876821,20.6985447 0.239870199,20.7192894 C0.234943046,20.7234383 0.229194702,20.7250979 0.225909934,20.7300766 C0.22426755,20.7342255 0.225088742,20.7433532 0.225088742,20.7433532 C0.325274172,20.779034 0.36058543,20.8586936 0.362227815,20.9524596 C0.404929801,20.966566 0.450916556,20.9466511 0.47226755,20.9997574 L0.47226755,21.1283745 C0.429565563,21.1333532 0.392611921,21.1524383 0.36058543,21.1806511 C0.375366887,21.1980766 0.389327152,21.2138426 0.404108609,21.2287787 C0.347446358,21.2793957 0.398360265,21.3051191 0.425459603,21.3383106 C0.474731126,21.4013745 0.565062252,21.407183 0.610227815,21.4752255 C0.653750993,21.5358 0.734227815,21.4951404 0.782678146,21.5416085 C0.787605298,21.5955447 0.793353642,21.6486511 0.799101987,21.703417 C0.845088742,21.719183 0.886969536,21.719183 0.930492715,21.7025872 C0.960876821,21.6610979 0.990439735,21.6196085 1.01918146,21.5789489 C1.06516821,21.5689915 1.11936689,21.5938851 1.15467815,21.5432681 C1.19163179,21.551566 1.20559205,21.5830979 1.22530066,21.6104809 C1.23597616,21.7050766 1.2318702,21.7980128 1.18095629,21.8834809 C1.15467815,21.8876298 1.12593642,21.8801617 1.10458543,21.902566 C1.12018808,21.9316085 1.13743311,21.9598213 1.15303576,21.988034 C1.1177245,22.0228851 1.05531391,22.0071191 1.02903576,22.0461191 C1.01918146,22.097566 1.08487682,22.1141617 1.07009536,22.1432043 C1.02739338,22.2187149 0.947737748,22.1672681 0.914068874,22.2253532 C0.870545695,22.2527362 0.833592053,22.2809489 0.858227815,22.3423532 C0.900108609,22.3481617 0.928850331,22.3307362 0.950201325,22.2975447 C1.01261192,22.2527362 1.08487682,22.2643532 1.15467815,22.261034 C1.17685033,22.2726511 1.19902252,22.2850979 1.22201589,22.2958851 C1.22037351,22.4137149 1.33616159,22.3855021 1.39200265,22.4328 C1.39036026,22.456034 1.38871788,22.4792681 1.38789669,22.5016723 C1.29263841,22.5506298 1.27046623,22.6261404 1.32220132,22.7207362 C1.28853245,22.7273745 1.2630755,22.7199064 1.25404238,22.7696936 C1.27457219,22.8062043 1.34273113,22.8410553 1.32138013,22.912417 C1.23926093,23.0343957 1.34601589,23.0617787 1.41663841,23.107417 C1.43634702,23.1787787 1.44948609,23.2501404 1.42238675,23.3215021 C1.35504901,23.3679702 1.26882384,23.3936936 1.23761854,23.4841404 C1.27621457,23.5073745 1.31645298,23.4940979 1.35504901,23.5007362 C1.36243974,23.5355872 1.35258543,23.5762468 1.39036026,23.6003106 C1.42402914,23.6384809 1.41335364,23.6998851 1.46508874,23.7388851 L1.66135364,23.7388851 C1.70569801,23.7380553 1.75168477,23.7380553 1.79767152,23.7372255 C1.84201589,23.7612894 1.88553907,23.7853532 1.92824106,23.809417 C1.91920795,23.8309915 1.90853245,23.8517362 1.89949934,23.8733106 C1.85843974,23.9106511 1.7377245,23.9056723 1.8313404,24.0110553 C1.88636026,24.0923745 1.94384371,23.9952894 2.00050596,24.0118851 C2.01446623,24.0691404 2.02842649,24.1272255 2.04238675,24.1844809 C2.03663841,24.1944383 2.03335364,24.203566 2.03089007,24.2143532 C1.97915497,24.2292894 1.96930066,24.1479702 1.90689007,24.1637362 C1.90196291,24.2807362 1.96355232,24.3222255 2.07112848,24.3189064 C2.08755232,24.3396511 2.10397616,24.3620553 2.12122119,24.3836298 C2.09001589,24.4159915 2.05634702,24.4466936 2.07441325,24.5006298 C2.10397616,24.5479277 2.17788344,24.5404596 2.21401589,24.6226085 C2.25343311,24.6740553 2.12122119,24.7545447 2.20580397,24.8300553 C2.22961854,24.8698851 2.28463841,24.827566 2.30927417,24.8682255 C2.32159205,24.874034 2.32980397,24.8649064 2.33965828,24.8599277 C2.33965828,24.8632468 2.34047947,24.8649064 2.33965828,24.8682255 L2.30927417,24.8682255 C2.2854596,24.8898 2.26246623,24.913034 2.23865166,24.9362681 C2.21894305,24.940417 2.20990993,24.9528638 2.20580397,24.9711191 C2.1516053,25.0192468 2.1516053,25.0657149 2.21073113,25.1072043 C2.25179073,25.1337574 2.28299603,25.1793957 2.33883709,25.1802255 L2.34047947,25.174417 L2.34376424,25.174417 C2.34376424,25.174417 2.34047947,25.1777362 2.33883709,25.1802255 C2.30270464,25.2798 2.30270464,25.3826936 2.3068106,25.4855872 C2.32323444,25.5328851 2.36018808,25.5503106 2.40535364,25.5594383 C2.40617483,25.5469915 2.40699603,25.5328851 2.40781722,25.5187787 L2.40863841,25.5196085 C2.3996053,25.5328851 2.39467815,25.5453319 2.40535364,25.5594383 C2.41767152,25.6938638 2.53838675,25.6532043 2.61065166,25.6905447 C2.62214834,25.6905447 2.63364503,25.6905447 2.64514172,25.6913745 L2.64514172,25.6922043 C2.63446623,25.6872255 2.62296954,25.6830766 2.61065166,25.6905447 C2.58437351,25.7428213 2.57205563,25.8050553 2.51046623,25.8291191 C2.39632053,25.8639702 2.2854596,25.9021404 2.19759205,26.0307574 C2.28217483,26.0183106 2.35033377,26.083034 2.39057219,26.044034 C2.45216159,25.9859489 2.51375099,26.0042043 2.57780397,25.9992255 C2.59669139,26.0332468 2.60900927,26.071417 2.65253245,26.1021191 C2.74614834,26.0473532 2.8438702,26.1510766 2.94651921,26.1070979 C2.95308874,26.1245234 2.96622781,26.1336511 2.98265166,26.1369702 C2.98429404,26.1477574 2.98593642,26.1585447 2.98757881,26.1693319 C2.97690331,26.2182894 2.96540662,26.2672468 2.92270464,26.2971191 C2.80034702,26.3328 2.67059868,26.2763745 2.55234702,26.3245021 C2.55563179,26.4257362 2.64349934,26.3742894 2.67716821,26.4124596 C2.68620132,26.4531191 2.66156556,26.5012468 2.70590993,26.5385872 C2.75271788,26.543566 2.79049272,26.4572681 2.84715497,26.5153532 C2.82826755,26.6497787 2.95144636,26.6804809 3.01878411,26.7518426 C3.11404238,26.7949915 3.06148609,26.890417 3.09104901,26.9559702 C3.11979073,27.0522255 3.1739894,27.1235872 3.28567152,27.1468213 C3.26842649,27.2679702 3.32755232,27.3476298 3.42116821,27.4082043 C3.43594967,27.4845447 3.38421457,27.4994809 3.32837351,27.4994809 C3.32755232,27.5318426 3.32508874,27.5542468 3.32344636,27.5758213 C3.28485033,27.5957362 3.25118146,27.6214596 3.2364,27.6679277 C3.27499603,27.7177149 3.32837351,27.7401191 3.38832053,27.7500766 C3.41706225,27.7832681 3.44662517,27.8156298 3.48029404,27.8538 C3.47700927,27.869566 3.47290331,27.8961191 3.46715497,27.9218426 C3.45730066,27.9425872 3.44580397,27.9633319 3.43430728,27.9840766 C3.41459868,28.076183 3.49179073,28.1243106 3.52792318,28.1923532 C3.53120795,28.2155872 3.52217483,28.2512681 3.56569801,28.2388213 C3.60183046,28.2296936 3.63714172,28.216417 3.66095629,28.2612255 C3.63632053,28.271183 3.61743311,28.2869489 3.6084,28.3126723 C3.61743311,28.3392255 3.63632053,28.3549915 3.66177748,28.3641191 C3.65849272,28.4769702 3.68641325,28.5923106 3.59443974,28.7217574 C3.72911523,28.661183 3.71515497,28.8113745 3.79727417,28.8113745 C3.77920795,28.9275447 3.86871788,29.0271191 3.84408212,29.1466085 C3.96479735,29.2602894 4.15038675,29.3366298 4.07812185,29.5631617 C4.14628079,29.5946936 4.18651921,29.6502894 4.2284,29.6934383 C4.25632053,29.7548426 4.2078702,29.827034 4.27192318,29.8735021 C4.29902252,29.9282681 4.33515497,29.9780553 4.34500927,30.0394596 C4.35075762,30.0958851 4.41234702,30.1149702 4.42877086,30.1639277 C4.41563179,30.1879915 4.40167152,30.2112255 4.38278411,30.2452468 C4.48050596,30.2809277 4.42302252,30.3904596 4.46490331,30.4360979 C4.51335364,30.4883745 4.48789669,30.6136723 4.60614834,30.5813106 C4.61846623,30.6535021 4.59711523,30.7049489 4.58643974,30.7597149 C4.57740662,30.8103319 4.59793642,30.8659277 4.60450596,30.9132255 C4.65706225,30.9331404 4.69812185,30.9530553 4.74000265,30.9638426 C4.78516821,30.9754596 4.82869139,30.9837574 4.84347285,31.0352043 C4.80323444,31.2293745 4.81473113,31.2550979 4.9830755,31.3828851 C4.9617245,31.4749915 5.0553404,31.5339064 5.05205563,31.621034 C5.11200265,31.6998638 5.00771126,31.7222681 4.99867815,31.7795234 C5.02249272,31.8542043 5.09393642,31.9106298 5.0857245,31.9985872 C5.10379073,32.0965021 5.18180397,32.0965021 5.25489007,32.1031404 C5.27706225,32.1429702 5.32304901,32.1487787 5.35753907,32.1703532 C5.37642649,32.2433745 5.26556556,32.2342468 5.27459868,32.3072681 C5.3854596,32.389417 5.36985695,32.2475234 5.42241325,32.2176511 C5.44951258,32.2516723 5.51520795,32.2201404 5.52916821,32.3147362 C5.54230728,32.3678426 5.42569801,32.3595447 5.42898278,32.4533106 C5.49714172,32.4956298 5.48646623,32.5686511 5.46100927,32.6466511 C5.45197616,32.6756936 5.46511523,32.7030766 5.49303576,32.7180128 C5.49303576,32.7636511 5.51520795,32.7868851 5.56201589,32.7868851 C5.60636026,32.7868851 5.62853245,32.8092894 5.63017483,32.8557574 C5.59322119,32.8773319 5.59075762,32.9072043 5.61210861,32.947034 C5.7057245,32.9710979 5.81904901,32.9569915 5.89377748,33.0474383 C5.82315497,33.1926511 5.83465166,33.2440979 5.95618808,33.3121404 C5.90938013,33.3768638 5.90609536,33.4498851 5.96604238,33.4996723 C6.00381722,33.532034 5.98739338,33.5901191 6.03502252,33.6092043 C6.07361854,33.6631404 6.07033377,33.7228851 6.05226755,33.7718426 C6.12124768,33.883034 6.22143311,33.8382255 6.30601589,33.8523319 C6.31012185,33.8880128 6.29369801,33.9303319 6.33968477,33.9527362 C6.34461192,33.9734809 6.36021457,33.988417 6.35118146,34.0149702 C6.31176424,34.1286511 6.39141987,34.2639064 6.50967152,34.2954383 C6.53594967,34.2995872 6.56551258,34.2962681 6.57783046,34.3286298 C6.48996291,34.3311191 6.47518146,34.3958426 6.45547285,34.4572468 C6.51541987,34.5136723 6.57536689,34.538566 6.64516821,34.5377362 C6.64927417,34.5535021 6.65091656,34.5825447 6.65584371,34.5833745 C6.76834702,34.6008 6.79216159,34.6987149 6.83486358,34.7808638 C6.85621457,34.8198638 6.87099603,34.862183 6.91698278,34.8779489 C6.91698278,34.9053319 6.9153404,34.9327149 6.88495629,34.9459915 C6.86278411,34.9476511 6.85128742,34.9600979 6.85128742,34.9833319 C6.84800265,35.0057362 6.80776424,35.0239915 6.85210861,35.0613319 C6.91698278,35.0298 6.98267815,35.0787574 7.05330066,35.0870553 C7.09271788,35.1642255 7.16498278,35.2082043 7.23478411,35.2397362 C7.22903576,35.2729277 7.2249298,35.2936723 7.22246623,35.3160766 C7.20029404,35.3276936 7.19043974,35.3467787 7.1945457,35.3733319 C7.25120795,35.3907574 7.30869139,35.447183 7.36289007,35.3617149 C7.3899894,35.318566 7.42612185,35.3774809 7.45814834,35.3592255 C7.46553907,35.4222894 7.47210861,35.4845234 7.52548609,35.5293319 C7.48935364,35.5965447 7.53616159,35.6455021 7.56161854,35.6994383 L7.5764,35.7010979 L7.59282384,35.6969489 C7.66508874,35.7558638 7.57147285,35.8438213 7.62895629,35.9060553 C7.60596291,35.9641404 7.52877086,35.9135234 7.50495629,35.9691191 C7.59446623,36.0421404 7.59446623,36.0421404 7.72503576,36.0479489 C7.73242649,36.0736723 7.72996291,36.1043745 7.76609536,36.1110128 C7.80961854,36.1583106 7.85149934,36.2056085 7.89502252,36.2520766 C7.87038675,36.2786298 7.85396291,36.2993745 7.8342543,36.3192894 C7.81043974,36.3292468 7.79730066,36.3574596 7.81208212,36.3699064 C7.88927417,36.4271617 7.87120795,36.5176085 7.89830728,36.5931191 C7.94429404,36.7084596 8.0518702,36.6727787 8.13727417,36.6960128 C8.15698278,36.7466298 8.17833377,36.6976723 8.19968477,36.6960128 C8.20050596,36.7408213 8.20214834,36.7848 8.20461192,36.8296085 C8.19229404,36.8320979 8.18161854,36.835417 8.17094305,36.8387362 C8.1348106,36.8320979 8.10524768,36.8403957 8.08389669,36.8935021 C8.13727417,36.9225447 8.05679735,37.0270979 8.16683709,37.0395447 C8.22432053,37.0968 8.18983046,37.1640128 8.17997616,37.2245872 C8.24074437,37.2893106 8.30315497,37.3225021 8.38691656,37.3000979 C8.38691656,37.2544596 8.34667815,37.241183 8.33764503,37.2079915 C8.34339338,37.1424383 8.38034702,37.1092468 8.44357881,37.1042681 C8.53883709,37.1615234 8.58400265,37.2586085 8.63820132,37.3490553 C8.64887682,37.4212468 8.66694305,37.4934383 8.70718146,37.5565021 C8.71785695,37.5955021 8.67597616,37.6295234 8.69486358,37.6718426 C8.73756556,37.7075234 8.80736689,37.6718426 8.84432053,37.7282681 C8.84842649,37.7647787 8.82871788,37.8087574 8.88045298,37.8286723 C8.91494305,37.8842681 8.94943311,37.8319915 8.98392318,37.8270128 C9.00527417,37.8734809 9.02662517,37.9191191 9.07014834,37.9531404 C9.14651921,37.9539702 9.2196053,37.9440128 9.26148609,37.861034 C9.29104901,37.8469277 9.3124,37.8253532 9.32553907,37.7946511 C9.35920795,37.7954809 9.39123444,37.7963106 9.42326093,37.7971404 C9.48320795,37.9050128 9.6121351,37.9489915 9.66551258,38.0635021 C9.6745457,38.0659915 9.68604238,38.0701404 9.6950755,38.0742894 C9.68850596,38.099183 9.65976424,38.1190979 9.68522119,38.1597574 C9.74024106,38.1697149 9.80018808,38.1846511 9.86670464,38.1390128 C9.82646623,38.0917149 9.7459894,38.1448213 9.73285033,38.0701404 C9.76241325,38.0676511 9.79279735,38.0635021 9.82236026,38.0610128 L10.0005589,38.0610128 C10.0555788,38.0245021 10.0112344,37.9539702 10.073645,37.939034 C10.1344132,37.9689064 10.030943,38.0402681 10.1048503,38.0659915 L10.120453,38.0659915 L10.1368768,38.0659915 C10.154943,38.0610128 10.1664397,38.0502255 10.1713669,38.0319702 C10.2222808,38.0328 10.2543073,38.0087362 10.2731947,37.9630979 L10.2748371,37.9630979 L10.2740159,37.9614383 C10.2855126,37.9614383 10.2953669,37.9614383 10.3068636,37.9622681 C10.3503868,37.9722255 10.3692742,38.0294809 10.4316848,38.0236723 C10.4661748,37.9564596 10.5794993,38.0037574 10.6057775,37.9290766 C10.6369828,37.8419489 10.7166384,37.8245234 10.7609828,37.8402894 C10.9178305,37.8975447 10.9432874,37.787183 10.9868106,37.6892681 C11.044294,37.7108426 11.1009563,37.705034 11.1584397,37.6842894 C11.2142808,37.6801404 11.2775126,37.7174809 11.3234993,37.6552468 C11.3555258,37.6502681 11.3908371,37.6652043 11.4146517,37.631183 C11.4269695,37.5996511 11.3982278,37.5797362 11.3941219,37.5540128 C11.4047974,37.541566 11.4171152,37.5299489 11.4277907,37.5175021 C11.5411152,37.5399064 11.5246914,37.4336936 11.5624662,37.3797574 C11.6503338,37.4511191 11.7299894,37.3698 11.8030755,37.3698 C11.8893007,37.237034 12.0067311,37.1407787 12.0716053,37.0046936 C12.0814596,37.0038638 12.0929563,37.003034 12.104453,37.003034 C12.1923205,36.9972255 12.2309166,36.9300128 12.2744397,36.8669489 C12.3302808,36.8320979 12.386943,36.7972468 12.4427841,36.7623957 C12.6341219,36.644566 12.7400556,36.445417 12.8837642,36.2827787 C13.049645,36.1798851 13.1038437,35.9989915 13.1892477,35.8396723 C13.2927179,35.8429915 13.2286649,35.7243319 13.2910755,35.6986085 C13.3682675,35.6687362 13.3929033,35.5948851 13.4265722,35.5293319 C13.5678172,35.4571404 13.5776715,35.318566 13.5957377,35.1858 C13.6277642,35.1733532 13.6302278,35.1451404 13.631049,35.1185872 C13.7205589,35.0613319 13.7353404,34.9733745 13.7304132,34.8771191 C13.7583338,34.8771191 13.7854331,34.8754596 13.7985722,34.8455872 C13.8158172,34.7941404 13.8782278,34.7675872 13.8667311,34.7028638 C13.9086119,34.6306723 14.0211152,34.5783957 13.9357113,34.4663745 C13.9702013,34.4439702 14.0137245,34.4356723 14.0375391,34.3975021 C14.1089828,34.3593319 14.0326119,34.261417 14.1081616,34.2240766 C14.1180159,34.2132894 14.1295126,34.2025021 14.1401881,34.1925447 C14.1993139,34.0888213 14.1828901,33.9875872 14.1393669,33.8846936 C14.1278702,33.8838638 14.1171947,33.8838638 14.105698,33.8855234 L14.105698,33.8838638 C14.1171947,33.8888426 14.1278702,33.8921617 14.1393669,33.8846936 C14.1960291,33.8855234 14.2494066,33.8797149 14.2740424,33.8158213 C14.3512344,33.727034 14.3955788,33.6299489 14.3257775,33.5137787 C14.4341748,33.5071404 14.3249563,33.4258213 14.3758702,33.4042468 C14.3865457,33.3926298 14.3988636,33.3810128 14.4095391,33.368566 C14.4834464,33.3669064 14.5302543,33.3229277 14.5425722,33.2573745 C14.5721351,33.0847787 14.6977775,32.9379064 14.6813536,32.752034 C14.708453,32.7495447 14.7363735,32.7462255 14.7437642,32.713034 C14.7651152,32.6200979 14.7306252,32.5528851 14.6452212,32.5130553 L14.6452212,32.4773745 C14.7388371,32.4773745 14.7232344,32.3703319 14.7782543,32.3338213 C14.8833669,32.3487574 14.9663073,32.3446085 14.9622013,32.1977362 C14.9597377,32.1379915 15.0106517,32.0840553 15.0607444,32.0433957 C15.1321881,31.9844809 15.1716053,31.9031617 15.2093801,31.820183 C15.2249828,31.7853319 15.2093801,31.7670766 15.178996,31.7554596 C15.1633934,31.6982043 15.1477907,31.6417787 15.1313669,31.5845234 C15.2356583,31.496566 15.3539099,31.4218851 15.3933272,31.2775021 C15.4417775,31.2775021 15.495155,31.2833106 15.4959762,31.2094596 C15.6569298,31.1878851 15.6725325,31.0576085 15.6971682,30.9339702 L15.6971682,30.8327362 C15.7226252,30.7879277 15.7907841,30.7870979 15.8022808,30.728183 C15.8211682,30.7232043 15.8302013,30.7107574 15.8326649,30.6916723 C15.8433404,30.673417 15.8540159,30.6551617 15.8646914,30.6369064 C15.8646914,30.6211404 15.8655126,30.6045447 15.8655126,30.5887787 C15.867155,30.5804809 15.867155,30.5713532 15.8655126,30.5630553 C15.8638702,30.5431404 15.8523735,30.5298638 15.8351285,30.5248851 C15.8351285,30.5016511 15.8359497,30.478417 15.8359497,30.4560128 C15.8712609,30.4427362 15.9566649,30.4875447 15.9123205,30.3871404 C15.9073934,30.3763532 15.9024662,30.3672255 15.8991815,30.3556085 C15.9000026,30.3448213 15.901645,30.3332043 15.9024662,30.322417 C15.9197113,30.3174383 15.9344927,30.3091404 15.9303868,30.2859064 C15.9344927,30.2742894 15.9402411,30.2618426 15.9451682,30.2502255 C15.9566649,30.2402681 16.0075788,30.2668213 15.9755523,30.217034 C15.9714464,30.2070766 15.9673404,30.1954596 15.9640556,30.1838426 C15.965698,30.1730553 15.9665192,30.1622681 15.9665192,30.1498213 C15.9714464,30.0850979 16.0371417,30.1066723 16.0732742,30.0776298 C16.0560291,30.0427787 16.0313934,30.0228638 16.0001881,30.010417 C16.0010093,29.9979702 16.0026517,29.9863532 16.0034728,29.975566 C16.0149695,29.9647787 16.0272874,29.9548213 16.0387841,29.9448638 C16.0584927,29.9390553 16.0716318,29.9274383 16.0716318,29.9058638 C16.0913404,29.905034 16.1118702,29.905034 16.1307576,29.9033745 C16.1833139,29.8851191 16.1915258,29.8369915 16.2013801,29.7913532 L16.2013801,29.7830553 C16.2046649,29.7681191 16.2054861,29.7523532 16.2079497,29.7357574 C16.2169828,29.7150128 16.2276583,29.6934383 16.239155,29.6718638 C16.239155,29.6560979 16.2383338,29.6411617 16.2383338,29.624566 C16.2276583,29.6162681 16.2169828,29.6071404 16.2079497,29.5980128 C16.2054861,29.585566 16.2022013,29.5731191 16.1997377,29.5623319 C16.2432609,29.5117149 16.2161616,29.4478213 16.2358702,29.3930553 C16.2555788,29.3913957 16.2687179,29.3814383 16.2761086,29.3623532 C16.2933536,29.3582043 16.3073139,29.3490766 16.3073139,29.3283319 C16.3081351,29.3158851 16.3089563,29.3042681 16.3089563,29.2918213 C16.3089563,29.2793745 16.3081351,29.2669277 16.3073139,29.2544809 C16.3081351,29.2436936 16.3089563,29.2329064 16.3105987,29.2212894 C16.3541219,29.1839489 16.3672609,29.1391404 16.3360556,29.086034 C16.4033934,29.0644596 16.4551285,29.0287787 16.4518437,28.9466298 C16.5323205,28.9316936 16.611155,28.9009915 16.6259364,28.8113745 C16.645645,28.6968638 16.7064132,28.5889915 16.6850623,28.4678426 C16.7179099,28.4495872 16.7146252,28.4197149 16.7121616,28.3890128 C16.7088768,28.3657787 16.7203735,28.3350766 16.6817775,28.3325872 C16.726943,28.2803106 16.6735656,28.2603957 16.6489298,28.2313532 C16.6431815,28.2263745 16.6398967,28.2213957 16.6341483,28.216417 C16.6374331,28.2155872 16.6415391,28.2147574 16.6440026,28.2130979 C16.6464662,28.2197362 16.6472874,28.2255447 16.6489298,28.2313532 C16.6604265,28.2288638 16.6735656,28.2255447 16.6850623,28.2230553 C16.6949166,28.2130979 16.7039497,28.2039702 16.7129828,28.193183 L16.7211947,28.1981617 L16.7302278,28.1940128 C16.8041351,28.1765872 16.8764,28.1583319 16.9388106,28.1433957 C16.9568768,28.0960979 16.9462013,28.072034 16.9199232,28.0562681 C16.9182808,28.0429915 16.9174596,28.0313745 16.9166384,28.0180979 C16.9166384,27.9965234 16.9174596,27.9749489 16.9182808,27.9533745 C16.9174596,27.9425872 16.9174596,27.9301404 16.9174596,27.9193532 C16.9051417,27.8836723 16.9930093,27.9002681 16.9527709,27.8496511 C16.9519497,27.8355447 16.9494861,27.8206085 16.9486649,27.8065021 C16.9396318,27.7982043 16.9289563,27.7899064 16.9182808,27.7816085 C16.9166384,27.7699915 16.9158172,27.7583745 16.9125325,27.7467574 C16.9182808,27.7351404 16.9240291,27.7243532 16.9297775,27.713566 C17.0981219,27.7293319 17.1342543,27.5583957 17.244294,27.4961617 C17.2286914,27.448034 17.1974861,27.440566 17.1621748,27.4389064 C17.1383603,27.4057149 17.1161881,27.3733532 17.0923735,27.3409915 C17.1490358,27.296183 17.188453,27.241417 17.1876318,27.1642468 C17.2303338,27.167566 17.2730358,27.1708851 17.3182013,27.1758638 C17.3658305,27.0613532 17.4693007,26.9808638 17.4955788,26.855566 C17.5251417,26.8074383 17.6097245,26.7974809 17.5957642,26.7169915 C17.5908371,26.6771617 17.6187576,26.6497787 17.6302543,26.6165872 C17.6655656,26.5593319 17.7000556,26.5012468 17.7329033,26.4448213 C17.7608238,26.4439915 17.7887444,26.4423319 17.8010623,26.4099702 C17.8109166,26.3178638 17.8996053,26.2539702 17.8708636,26.1543957 C17.911102,26.1560553 17.9414861,26.1635234 17.9472344,26.1427787 C17.9554464,26.0996298 17.8979629,26.0963106 17.9406649,26.0498426 C17.9628371,26.0307574 18.0055391,26.0838638 18.052347,26.0290979 C18.0646649,25.9851191 18.0810887,25.9203957 18.0983338,25.8573319 C18.0745192,25.8258 18.0318172,25.8083745 18.0375656,25.759417 C18.0424927,25.7411617 18.0539894,25.7295447 18.0712344,25.724566 C18.2436848,25.7146085 18.265857,25.6922043 18.2740689,25.5179489 C18.2748901,25.4847574 18.2757113,25.4507362 18.2757113,25.4167149 C18.3586517,25.3893319 18.3586517,25.2963957 18.4095656,25.2449489 C18.4514464,25.2341617 18.5064662,25.3005447 18.5360291,25.2266936 C18.5532742,25.1810553 18.5146781,25.1594809 18.4785457,25.1420553 C18.4769033,25.073183 18.4769033,25.0043106 18.4727974,24.9354383 C18.4752609,24.8673957 18.4769033,24.7985234 18.4777245,24.7313106 C18.5491682,24.7437574 18.5935126,24.6931404 18.6419629,24.6591191 C18.6994464,24.6931404 18.753645,24.7113957 18.7832079,24.6259277 C18.8062013,24.5197149 18.8316583,24.4135021 18.8825722,24.3155872 C18.9269166,24.2749277 18.9556583,24.2209915 18.9926119,24.1745234 C19.0574861,24.0923745 19.0476318,23.9786936 19.1207179,23.9040128 C19.1576715,23.887417 19.2011947,23.8799489 19.2200821,23.8384596 C19.2258305,23.7845234 19.1995523,23.7546511 19.1568503,23.735566 C19.1609563,23.6957362 19.1330358,23.6666936 19.1223603,23.6318426 C19.1346781,23.6210553 19.1478172,23.6102681 19.1609563,23.5994809 C19.2504662,23.5994809 19.2061219,23.5065447 19.2668901,23.4575872 C19.270996,23.4526085 19.3120556,23.4775021 19.3375126,23.4376723 C19.2594993,23.4243957 19.2061219,23.3787574 19.2085854,23.3032468 C19.2118702,23.2169489 19.3013801,23.2186085 19.3588636,23.1928851 C19.3974596,23.1754596 19.4516583,23.2061617 19.4869695,23.1572043 C19.4689033,23.0999489 19.4565854,23.0393745 19.4598702,22.9763106 C19.5263868,22.9398 19.5345987,22.8783957 19.5280291,22.811183 C19.5731947,22.7464596 19.4960026,22.7165872 19.4877907,22.6668 C19.4795788,22.6477149 19.4721881,22.6278 19.463155,22.6087149 C19.5625192,22.4892255 19.6618834,22.3697362 19.7612477,22.2502468 C19.792453,22.2685021 19.8023073,22.2336511 19.8211947,22.2245234 C19.9197377,22.1647787 19.9345192,22.1025447 19.8663603,22.0560766 C19.856506,22.0577362 19.848294,22.0602255 19.8392609,22.0643745 L19.8392609,22.0535872 C19.8474728,22.0560766 19.856506,22.0610553 19.8663603,22.0560766 C19.8581483,22.0029702 19.8573272,21.9523532 19.9279497,21.9448851 C19.9410887,21.949034 19.9558702,21.9515234 19.9706517,21.9565021 C19.9862543,21.9863745 20.001857,22.0162468 20.0560556,22.0112681 C20.0544132,21.9648 20.138996,21.9681191 20.117645,21.8901191 C20.0815126,21.8892894 20.0437377,21.8876298 20.0067841,21.8851404 C19.9878967,21.8121191 20.0338834,21.7473957 20.0338834,21.6768638 C20.0240291,21.598034 20.143102,21.563183 20.0995788,21.473566 C20.104506,21.4403745 20.1053272,21.4055234 20.1077907,21.3723319 L20.0979364,21.3673532 L20.0979364,21.3648638 C20.1012212,21.3673532 20.104506,21.3690128 20.1077907,21.3723319 C20.1513139,21.356566 20.2079762,21.3947362 20.2432874,21.3391404 C20.352506,21.2055447 20.3574331,21.1565872 20.2769563,21.0288 C20.3007709,20.9541191 20.3672874,20.939183 20.4280556,20.9217574 C20.4838967,20.9068213 20.5118172,20.8794383 20.5118172,20.8205234 C20.5939364,20.7192894 20.6637377,20.6139064 20.6850887,20.4819702 C20.7015126,20.4761617 20.7146517,20.4695234 20.7080821,20.4496085 C20.7236848,20.4023106 20.737645,20.3550128 20.7532477,20.3085447 C20.7787046,20.315183 20.7992344,20.3442255 20.8452212,20.3209915 C20.8772477,20.2197574 20.7327179,20.1425872 20.7836318,20.0347149 C20.8378305,20.0272468 20.8452212,20.0977787 20.8936715,20.0994383 C20.8895656,20.1193532 20.8846384,20.1417574 20.9027046,20.1583532 C20.9199497,20.1409277 20.9150225,20.1193532 20.9100954,20.0986085 C20.972506,20.0529702 20.9445854,19.9907362 20.9445854,19.9326511 C20.9807179,19.8405447 21.0184927,19.7492681 21.0554464,19.6579915 C21.0997907,19.562566 21.1416715,19.4688 21.1860159,19.3742043 C21.2673139,19.3144596 21.319049,19.2323106 21.361751,19.1435234 C21.4586517,19.1277574 21.5202411,19.0439489 21.6031815,19.0016298 C21.6384927,18.9750766 21.6729828,18.9452043 21.6943338,18.9037149 C21.7641351,18.8456298 21.750996,18.7601617 21.7132212,18.7095447 C21.6705192,18.6498 21.6811947,18.5800979 21.6434199,18.5253319 C21.6434199,18.5253319 21.6352079,18.5294809 21.6294596,18.5311404 C21.6302808,18.5286511 21.631102,18.5278213 21.631102,18.5278213 L21.6434199,18.5253319 C21.6278172,18.4672468 21.6253536,18.4091617 21.6508106,18.3502468 C21.673804,18.2971404 21.6409563,18.2705872 21.5966119,18.2515021 C21.5350225,18.1876085 21.6089298,18.1577362 21.6294596,18.1145872 C21.6425987,18.1162468 21.6549166,18.1187362 21.6680556,18.1203957 C21.691049,18.1436298 21.7148636,18.166034 21.737857,18.1900979 C21.7633139,18.2174809 21.7838437,18.2141617 21.8019099,18.1809702 C21.8561086,18.1809702 21.900453,18.1577362 21.934943,18.1162468 C21.9604,18.0241404 21.9677907,17.9303745 21.9677907,17.8349489 C21.9677907,17.8241617 21.9702543,17.8142043 21.9735391,17.8042468 C22.0277377,17.7420128 21.9751815,17.7436723 21.9341219,17.7386936 C21.9168768,17.7328851 21.9029166,17.7245872 21.9053801,17.7030128 C21.9768238,17.6972043 22.0006384,17.6183745 22.0663338,17.6142255 C22.0556583,17.5727362 22.0334861,17.5685872 22.0121351,17.5660979 C21.9718967,17.4723319 22.0638702,17.4665234 22.1041086,17.4275234 C22.1476318,17.4258638 22.1936185,17.4416298 22.2346781,17.4084383 C22.2437113,17.3727574 22.2527444,17.3362468 22.2625987,17.2989064 C22.2051152,17.2507787 22.1377775,17.2250553 22.0926119,17.1686298 C22.122996,17.144566 22.1747311,17.1570128 22.1878702,17.105566 C22.122996,17.0582681 22.1123205,16.9935447 22.1402411,16.9196936 C22.1509166,16.9155447 22.1615921,16.9122255 22.1722675,16.9080766 C22.2461748,16.9113957 22.3192609,16.9213532 22.3948106,16.9022681 C22.3693536,16.8350553 22.3857775,16.762034 22.3389695,16.7080979 C22.3397907,16.6856936 22.3422543,16.6624596 22.3438967,16.6392255 C22.3430755,16.6267787 22.3422543,16.6135021 22.3414331,16.6010553 C22.3553934,16.5803106 22.3693536,16.5603957 22.3824927,16.5388213 C22.4030225,16.5388213 22.4235523,16.5379915 22.4440821,16.5371617 L22.4580424,16.5371617 L22.4703603,16.5371617 C22.5344132,16.5628851 22.5721881,16.6433745 22.6551285,16.6359064 C22.742996,16.5180766 22.6001086,16.5006511 22.5754728,16.4334383 C22.5754728,16.4010766 22.576294,16.3670553 22.576294,16.3338638 C22.576294,16.3205872 22.5754728,16.3081404 22.5746517,16.2956936 C22.5541219,16.2110553 22.6707311,16.1753745 22.6477377,16.0907362 C22.6822278,16.0733106 22.7134331,16.064183 22.7569563,16.0675021 C22.8374331,16.0733106 22.9047709,16.0376298 22.9088768,15.9397149 C22.8834199,15.8841191 22.8045854,15.8617149 22.8193669,15.7845447 C22.8735656,15.7712681 22.9179099,15.8409702 22.969645,15.8110979 C23.033698,15.7704383 23.0156318,15.6932681 23.0558702,15.6476298 C23.0000291,15.6102894 22.9515788,15.5638213 22.888347,15.541417 C22.8858834,15.5248213 22.8825987,15.5090553 22.8801351,15.4932894 L22.8801351,15.4916298 C22.8817775,15.4742043 22.8834199,15.4559489 22.8850623,15.4385234 C22.8858834,15.428566 22.8850623,15.4194383 22.8809563,15.4094809 C22.8858834,15.3978638 22.8891682,15.3862468 22.8940954,15.3746298 C22.9023073,15.362183 22.9113404,15.3497362 22.9195523,15.3381191 C22.931049,15.3273319 22.9409033,15.3140553 22.9540424,15.3049277 L22.9540424,15.3057574 C22.9893536,15.2941404 23.0049563,15.2650979 23.0139894,15.2310766 C23.0230225,15.2086723 23.0082411,15.2028638 22.9901748,15.1995447 C22.9885325,15.1779702 22.9983868,15.167183 23.0189166,15.1663532 C23.037804,15.1613745 23.0501219,15.1505872 23.055049,15.1306723 C23.055049,15.1099277 23.0542278,15.0883532 23.0534066,15.0667787 L23.0534066,15.0261191 C23.0558702,15.0161617 23.0575126,15.0062043 23.0558702,14.9970766 L23.0542278,14.9945872 L23.0558702,14.9937574 C23.0558702,14.9829702 23.055049,14.972183 23.055049,14.9613957 L23.0558702,14.9613957 L23.0558702,14.960566 L23.0575126,14.960566 L23.0566914,14.960566 C23.0484795,14.972183 23.0468371,14.9829702 23.0558702,14.9937574 L23.0558702,14.9970766 C23.0788636,14.9937574 23.0887179,14.9796511 23.0928238,14.9589064 C23.1108901,14.9539277 23.1199232,14.9406511 23.1223868,14.9223957 C23.1223868,14.9132681 23.1223868,14.9033106 23.1207444,14.894183 L23.1223868,14.894183 L23.1232079,14.8916936 C23.1453801,14.8833957 23.179049,14.8991617 23.1872609,14.8609915 C23.1872609,14.8468851 23.1872609,14.8327787 23.1880821,14.8186723 C23.2422808,14.7365234 23.3120821,14.660183 23.2940159,14.5489915 C23.3145457,14.5489915 23.3367179,14.5481617 23.3572477,14.5481617 C23.3777775,14.5440128 23.3892742,14.531566 23.3933801,14.5108213 C23.3942013,14.5016936 23.3933801,14.4917362 23.3900954,14.4817787 L23.3613536,14.4817787 L23.3613536,14.4792894 L23.3597113,14.4792894 L23.3597113,14.4751404 C23.3679232,14.4850979 23.3777775,14.4892468 23.3900954,14.4817787 C23.4188371,14.4801191 23.4500424,14.4809489 23.4623603,14.4469277 C23.4623603,14.4336511 23.4623603,14.4203745 23.4607179,14.4087574 C23.4623603,14.3996298 23.4623603,14.3896723 23.4623603,14.3805447 C23.4598967,14.3631191 23.4516848,14.3506723 23.4344397,14.3465234 C23.4500424,14.3141617 23.4582543,14.2718426 23.4828901,14.2502681 C23.5108106,14.2245447 23.593751,14.2560766 23.551049,14.1623106 C23.5444795,14.1465447 23.6085325,14.0909489 23.6027841,14.0370128 C23.6126384,14.0353532 23.6208503,14.0345234 23.6307046,14.0345234 C23.6495921,14.0295447 23.6610887,14.0154383 23.6643735,13.9963532 C23.6660159,13.985566 23.6643735,13.9747787 23.6602675,13.9656511 C23.6487709,13.9042468 23.721857,13.8843319 23.7259629,13.8303957 C23.7284265,13.8187787 23.7317113,13.8079915 23.7341748,13.7963745 C23.7768768,13.7358 23.7908371,13.6519915 23.8696715,13.6196298 L23.8836318,13.6229489 L23.8975921,13.6212894 C23.9608238,13.5889277 23.9312609,13.5308426 23.9345457,13.4818851 C23.9378305,13.4727574 23.9378305,13.4619702 23.9361881,13.4528426 L23.9386517,13.4528426 L23.940294,13.4503532 C23.9501483,13.451183 23.9608238,13.451183 23.969857,13.4520128 C24.0142013,13.4412255 23.9994199,13.4063745 23.9994199,13.3781617 C24.004347,13.3706936 24.0035258,13.3632255 23.9985987,13.3557574 C23.9985987,13.3399915 23.9994199,13.3258851 23.9994199,13.3084596 C24.0035258,13.3018213 24.0051682,13.2935234 24.0035258,13.2852255 C24.0035258,13.2727787 24.0051682,13.2603319 24.0051682,13.2478851 C24.0486914,13.2238213 24.0035258,13.1997574 24.0059894,13.1748638 C24.0684,13.1881404 24.1160291,13.1707149 24.1447709,13.1109702 C24.1628371,13.1059915 24.175155,13.0985234 24.1694066,13.0769489 L24.1694066,13.0387787 C24.2055391,12.9873319 24.2630225,12.9475021 24.2465987,12.8719915 C24.2843735,12.8612043 24.273698,12.8263532 24.2819099,12.8014596 C24.2983338,12.7939915 24.3081881,12.7807149 24.3081881,12.7624596 C24.3098305,12.7525021 24.312294,12.7433745 24.3147576,12.7342468 C24.3705987,12.7193106 24.3180424,12.6429702 24.3738834,12.628034 C24.3985192,12.6238851 24.4116583,12.6155872 24.3837377,12.5948426 C24.3829166,12.5840553 24.3829166,12.5732681 24.3829166,12.5616511 C24.3944132,12.5525234 24.4050887,12.5433957 24.4157642,12.5350979 C24.423155,12.5292894 24.4321881,12.5259702 24.4404,12.5243106 C24.4601086,12.5234809 24.4732477,12.5118638 24.4822808,12.4944383 C24.4921351,12.4819915 24.5028106,12.4687149 24.5118437,12.4570979 C24.5126649,12.4454809 24.5126649,12.4346936 24.5126649,12.4230766 C24.5036318,12.4114596 24.4945987,12.3990128 24.4855656,12.386566 C24.5405854,12.3459064 24.5512609,12.2786936 24.5808238,12.2214383 C24.6473404,12.2230979 24.628453,12.1840979 24.6161351,12.148417 C24.6062808,12.0687574 24.6867576,12.0944809 24.7154993,12.0596298 L24.7154993,12.043034 L24.7171417,12.043034 C24.7122146,12.0480128 24.7122146,12.0529915 24.7154993,12.0596298 C24.7475258,12.043034 24.7516318,12.0123319 24.7540954,11.9824596 C24.8698834,11.9832894 24.829645,11.9069489 24.8206119,11.8463745 C24.9372212,11.8389064 24.8674199,11.7550979 24.876453,11.7044809 C24.8789166,11.6936936 24.8830225,11.6820766 24.8863073,11.6721191 L24.8863073,11.6364383 C24.897804,11.6248213 24.9076583,11.6123745 24.9199762,11.6015872 L24.9199762,11.602417 C24.9314728,11.5990979 24.9429695,11.5966085 24.9561086,11.5941191 C24.9766384,11.6007574 24.9840291,11.5883106 24.9864927,11.5708851 C24.9873139,11.5567787 24.9873139,11.5443319 24.9873139,11.5302255 C24.9881351,11.5194383 24.9897775,11.5103106 24.9897775,11.4986936 C25.000453,11.4962043 25.0119497,11.4945447 25.0242675,11.4920553 C25.0333007,11.4962043 25.0439762,11.4986936 25.0538305,11.4978638 C25.1129563,11.4630128 25.081751,11.4049277 25.0883205,11.3576298 C25.0899629,11.3493319 25.0891417,11.3402043 25.0874993,11.3310766 C25.0874993,11.3169702 25.0866781,11.3028638 25.0866781,11.2879277 C25.0883205,11.2788 25.0907841,11.2696723 25.0907841,11.2597149 C25.1014596,11.2563957 25.1113139,11.2522468 25.1219894,11.2497574 C25.1293801,11.2489277 25.1449828,11.2497574 25.1449828,11.2464383 C25.1507311,11.2273532 25.1359497,11.2265234 25.124453,11.2248638 C25.141698,11.1493532 25.2114993,11.2132468 25.2533801,11.1692681 C25.2476318,11.0813106 25.3617775,11.021566 25.3313934,10.9145234 C25.3313934,10.865566 25.3979099,10.8564383 25.3929828,10.8049915 C25.3814861,10.7859064 25.3699894,10.7676511 25.3601351,10.7493957 C25.3609563,10.7344596 25.3617775,10.7178638 25.3634199,10.7029277 C25.4989166,10.6971191 25.5670755,10.565183 25.6804,10.5452681 C25.7033934,10.448183 25.6968238,10.3718426 25.6697245,10.2971617 C25.6927179,10.253183 25.7797642,10.2399064 25.7329563,10.1619064 C25.7518437,10.1560979 25.7715523,10.1585872 25.787155,10.1370128 C25.8347841,10.0714596 25.8126119,9.97271489 25.8881616,9.92126809 C25.8848768,9.81588511 26.0179099,9.77522553 26.0055921,9.66486383 C26.0803205,9.62669362 26.1493007,9.58271489 26.1107046,9.4781617 C26.1714728,9.47069362 26.2100689,9.4391617 26.2158172,9.37526809 C26.2429166,9.37194894 26.2708371,9.36862979 26.3053272,9.36365106 C26.279049,9.34456596 26.261804,9.33211915 26.2462013,9.32133191 C26.2503073,9.26905532 26.364453,9.28399149 26.3127179,9.20267234 C26.3291417,9.20101277 26.360347,9.20101277 26.360347,9.1985234 C26.3677377,9.1205234 26.4408238,9.09645957 26.4818834,9.04750213 C26.5122675,9.0101617 26.5245854,8.97365106 26.5139099,8.92801277 C26.6658305,8.87158723 26.7167444,8.73384255 26.7528768,8.59775745 C26.7660159,8.54465106 26.7980424,8.47660851 26.7528768,8.41686383 C26.8481351,8.36790638 26.9507841,8.31397021 26.9770623,8.20526809 C26.9902013,8.15382128 27.005804,8.10901277 27.0255126,8.06171489 L27.0567179,7.89741702 C27.0862808,7.82605532 27.1708636,7.79784255 27.1889298,7.71984255 C27.1963205,7.64682128 27.2989695,7.63686383 27.2932212,7.55554468 C27.313751,7.54392766 27.335102,7.53148085 27.3556318,7.51903404 C27.441857,7.49994894 27.5387576,7.49248085 27.561751,7.37548085 C27.5050887,7.27673617 27.6077377,7.20288511 27.6011682,7.11160851 C27.6997113,7.08339574 27.6652212,7.00456596 27.6668636,6.93901277 C27.7555523,6.95228936 27.7120291,6.85769362 27.7539099,6.83114043 C27.8319232,6.7871617 27.7933272,6.64028936 27.929645,6.65190638 C27.8976185,6.58967234 27.9041881,6.53905532 27.9058305,6.4884383 C28.0142278,6.52162979 28.0807444,6.3971617 28.1842146,6.41209787 C28.1891417,6.29177872 28.1833934,6.1698 28.2072079,6.05031064 C28.2293801,5.98309787 28.3188901,5.95654468 28.3123205,5.87273617 C28.3197113,5.87024681 28.3328503,5.86775745 28.3344927,5.86360851 C28.3385987,5.84535319 28.3246384,5.8445234 28.3114993,5.84369362 C28.3418834,5.79390638 28.4248238,5.78145957 28.4133272,5.70097021 C28.4354993,5.70594894 28.4437113,5.6951617 28.4437113,5.67441702 C28.4740954,5.63126809 28.5332212,5.60305532 28.5135126,5.53584255 C28.5233669,5.52422553 28.5340424,5.51260851 28.5471815,5.50265106 C28.5833139,5.43128936 28.6621483,5.37486383 28.6251947,5.28690638 C28.7294861,5.18982128 28.8148901,5.08277872 28.9544927,5.06037447 C28.9996583,5.05041702 29.0612477,5.06369362 29.0546781,4.98403404 C29.0982013,4.90603404 29.0784927,4.83965106 29.024294,4.77824681 C29.0661748,4.7135234 29.0152609,4.68448085 28.9651682,4.64631064 C28.9553139,4.69111915 28.921645,4.6811617 28.8912609,4.68199149 C28.8370623,4.65792766 28.8608768,4.60067234 28.8395258,4.56167234 C28.8395258,4.54175745 28.840347,4.52267234 28.8411682,4.50358723 C28.8674464,4.43637447 28.8748371,4.3691617 28.8452742,4.30028936 C28.8477377,4.28867234 28.8502013,4.27622553 28.8526649,4.2654383 C28.8937245,4.25797021 28.8797642,4.19905532 28.9200026,4.19075745 C28.9799497,4.20154468 29.0193669,4.1675234 29.0587841,4.13101277 C29.1253007,4.06297021 29.1359762,3.96339574 29.1942808,3.89120426 C29.2690093,3.81984255 29.1934596,3.72690638 29.2295921,3.65056596 C29.3305987,3.58501277 29.3420954,3.47714043 29.3626252,3.37424681 C29.374943,3.37258723 29.3856185,3.37092766 29.3979364,3.37009787 C29.4184662,3.36760851 29.4398172,3.36594894 29.460347,3.36511915 C29.5079762,3.34769362 29.4923735,3.30703404 29.4964795,3.27218298 L29.4964795,3.23401277 C29.4833404,3.17675745 29.5408238,3.1668 29.5654596,3.1344383 C29.5966649,3.10622553 29.6360821,3.08050213 29.6015921,3.02988511 C29.5539629,2.99918298 29.507155,2.96931064 29.4587046,2.94026809 C29.4677377,2.85562979 29.4628106,2.76850213 29.4973007,2.68801277 C29.5638172,2.76850213 29.6566119,2.79339574 29.751049,2.82409787 C29.7625457,2.70294894 29.7625457,2.70377872 29.7042411,2.64486383 C29.6771417,2.61831064 29.6459364,2.59341702 29.6360821,2.55275745 C29.6467576,2.55275745 29.6557907,2.54860851 29.6631815,2.54114043 C29.6713934,2.5428 29.6796053,2.54445957 29.6861748,2.54611915 C29.7691152,2.55939574 29.8372742,2.53284255 29.8906517,2.4714383 C29.8734066,2.42082128 29.8380954,2.41335319 29.7970358,2.41584255 C29.7863603,2.41584255 29.7748636,2.41667234 29.7625457,2.41667234 C29.768294,2.32622553 29.7017775,2.32041702 29.6451152,2.32954468 C29.6081616,2.3345234 29.5728503,2.35111915 29.5334331,2.3411617 L29.5268636,2.35111915 C29.5260424,2.34945957 29.5244,2.34945957 29.5244,2.34945957 C29.5268636,2.34531064 29.5309695,2.34365106 29.5334331,2.3411617 C29.5367179,2.26731064 29.5679232,2.21005532 29.6319762,2.17188511 C29.7182013,2.16773617 29.7724,2.25237447 29.857804,2.25237447 C29.8734066,2.22333191 29.8651947,2.19677872 29.8594464,2.16939574 C29.8651947,2.14782128 29.917751,2.13454468 29.870943,2.10384255 C29.9054331,2.05903404 29.9538834,2.04077872 30.0080821,2.0358 C30.0729563,2.02418298 30.1493272,2.09388511 30.208453,2.00094894 C30.182996,1.86818298 30.0639232,1.89058723 29.9752344,1.86403404 C29.9793404,1.81092766 30.0516053,1.75450213 29.9645589,1.70803404 C29.9867311,1.65658723 29.9284265,1.63501277 29.9202146,1.60099149 C29.9308901,1.52962979 29.9867311,1.51137447 30.0343603,1.48731064 C30.1279762,1.46905532 30.2191285,1.58190638 30.311102,1.48731064 C30.3225987,1.4765234 30.3332742,1.46490638 30.3431285,1.45411915 C30.3423073,1.38109787 30.2889298,1.38939574 30.242943,1.38690638" id="Fill-15" fill="#EC1B2E" mask="url(#mask-2)"></path>
                    </g>
                </g>
            </g>
        </g>
    </g>
</svg>