<svg width="50" height="76" fill="none" xmlns="http://www.w3.org/2000/svg"><mask id="a" style="mask-type:alpha" maskUnits="userSpaceOnUse" x="0" y="0" width="50" height="51"><path fill-rule="evenodd" clip-rule="evenodd" d="M0 0h50v50.25H0V0z" fill="#0451B6"/></mask><g mask="url(#a)"><path fill-rule="evenodd" clip-rule="evenodd" d="M29.45 49.435c.155-.057.31-.108.462-.17.178-.075.35-.162.523-.244.216-.101.433-.199.645-.312.1-.055.196-.117.294-.175.272-.156.544-.315.807-.493.01-.007.02-.016.032-.023a12.958 12.958 0 001.664-1.357 12.752 12.752 0 003.158-.471c.082-.023.165-.04.246-.064.257-.078.506-.172.756-.266.154-.056.31-.106.461-.17.178-.073.349-.16.522-.243.217-.101.434-.199.646-.312.1-.055.195-.117.294-.174.272-.157.543-.316.806-.494l.032-.023a12.923 12.923 0 001.88-1.553 12.837 12.837 0 002.094-2.789c.043-.077.091-.15.134-.228.125-.234.233-.475.343-.716.07-.151.146-.3.21-.456.073-.176.131-.355.195-.534.083-.228.17-.455.24-.69.032-.106.054-.215.083-.324.083-.305.163-.612.225-.926.003-.017.004-.035.008-.052.13-.693.203-1.404.22-2.13.486-.512.923-1.052 1.31-1.618.021-.031.045-.06.066-.091a13 13 0 00.477-.788c.06-.105.127-.207.185-.314.112-.212.209-.43.31-.645.08-.176.168-.348.241-.527.065-.156.116-.315.173-.472.091-.248.184-.494.26-.75.027-.089.045-.18.07-.27.089-.322.172-.645.236-.976 0-.002 0-.006.002-.008.153-.798.24-1.619.24-2.461 0-.833-.085-1.645-.236-2.434-.002-.013-.003-.027-.006-.04a12.29 12.29 0 00-.229-.941c-.027-.103-.048-.206-.079-.308-.072-.24-.16-.473-.245-.707-.062-.173-.118-.346-.188-.517-.067-.161-.146-.316-.219-.474-.108-.234-.212-.469-.335-.697-.046-.085-.099-.165-.146-.25a12.854 12.854 0 00-1.888-2.553 13.002 13.002 0 00-.223-2.15l-.004-.03a13.077 13.077 0 00-.23-.95c-.027-.1-.047-.2-.077-.3-.073-.242-.161-.478-.248-.714-.061-.17-.117-.341-.185-.509-.069-.165-.149-.322-.223-.483-.106-.231-.21-.463-.331-.69-.047-.086-.102-.168-.15-.254a12.86 12.86 0 00-2.08-2.766 12.855 12.855 0 00-1.848-1.53c-.023-.015-.044-.034-.068-.049a12.67 12.67 0 00-.785-.48c-.105-.06-.206-.128-.314-.187-.206-.11-.417-.205-.627-.304-.18-.085-.358-.175-.542-.252-.145-.06-.293-.107-.44-.162-.257-.096-.513-.192-.777-.272-.074-.022-.15-.038-.223-.058a12.768 12.768 0 00-3.177-.476 12.9 12.9 0 00-1.663-1.356c-.012-.008-.022-.017-.034-.024a12.48 12.48 0 00-.802-.491c-.1-.058-.196-.122-.298-.177-.208-.112-.422-.208-.635-.308-.178-.084-.353-.173-.535-.249-.145-.06-.293-.108-.44-.162-.257-.096-.514-.193-.779-.273-.069-.02-.14-.035-.209-.054A12.734 12.734 0 0025 0c-1.208 0-2.373.18-3.482.495-.07.019-.14.033-.21.054-.264.08-.52.177-.78.273-.145.054-.293.102-.438.162-.182.076-.357.165-.535.25-.213.1-.427.195-.634.307-.103.055-.199.119-.299.177-.271.155-.54.314-.802.49l-.034.025a12.94 12.94 0 00-1.663 1.356 12.744 12.744 0 00-3.212.485c-.06.017-.122.03-.184.047a12.53 12.53 0 00-.804.283c-.138.051-.278.096-.414.152-.19.08-.374.173-.56.261-.205.096-.41.188-.61.296-.111.06-.216.129-.325.192-.262.151-.523.304-.777.475l-.064.047c-.65.446-1.274.951-1.852 1.532a12.832 12.832 0 00-2.078 2.766c-.05.085-.104.168-.15.255-.122.226-.226.458-.332.69-.074.16-.154.317-.222.482-.069.168-.125.339-.186.509-.086.236-.175.472-.248.714-.03.1-.05.2-.077.3-.086.313-.168.628-.23.95l-.005.03a13.002 13.002 0 00-.222 2.15 12.864 12.864 0 00-1.888 2.554c-.048.084-.1.164-.146.248-.122.23-.228.464-.335.698-.073.158-.152.313-.219.474-.07.17-.126.344-.188.517-.086.234-.174.467-.246.707-.03.102-.05.205-.079.308-.085.31-.166.621-.228.94-.002.014-.003.028-.006.041-.15.79-.236 1.601-.236 2.434a13 13 0 00.24 2.461l.002.008c.063.331.147.654.236.975.024.09.043.182.07.272.076.255.169.5.26.749.057.157.108.316.172.472.074.18.161.351.243.527.1.216.196.433.31.645.057.107.123.209.184.314.151.266.305.53.477.788.02.03.045.06.067.091.386.566.824 1.106 1.31 1.617.015.727.088 1.438.219 2.13.004.018.005.036.009.053.06.314.141.62.224.926.029.109.051.218.083.325.07.234.156.46.24.69.063.178.122.357.194.533.065.156.14.305.21.456.11.24.219.482.345.716.041.078.09.151.133.228.56.998 1.25 1.94 2.093 2.789a12.9 12.9 0 001.88 1.553c.012.007.022.016.033.023.263.178.534.337.806.494.099.057.193.12.294.174.211.113.429.21.646.312.173.082.344.17.522.244.151.063.307.113.461.17.25.093.499.187.756.265.08.024.163.04.245.064 1.01.283 2.067.446 3.16.471.525.504 1.08.959 1.663 1.357.012.007.021.016.033.023.262.178.533.337.806.493.098.058.193.12.293.175.212.113.43.21.646.312.174.082.344.17.522.243.152.063.308.114.461.17.25.094.5.188.757.266.08.024.163.04.245.063 1.1.309 2.254.487 3.45.487 1.197 0 2.35-.178 3.45-.487.082-.023.164-.04.245-.063.258-.078.506-.172.756-.265zm-3.291-.685a11.416 11.416 0 01-2.318 0c-.047-.005-.093-.016-.14-.021a11.311 11.311 0 01-5.497-2.194 12.657 12.657 0 001.647-.342c.087-.024.175-.042.262-.068.251-.075.494-.169.74-.26.158-.058.32-.11.477-.176.172-.071.338-.156.506-.235.222-.103.445-.204.66-.32.097-.053.187-.112.28-.167.277-.158.553-.32.82-.5l.021-.016c.482-.327.94-.7 1.383-1.1.443.4.901.773 1.383 1.1l.021.016c.267.18.542.342.82.5.093.055.183.114.279.166.216.117.44.218.66.32.17.08.334.165.507.236.157.066.318.118.478.177.244.09.488.184.74.26.086.025.174.043.26.067.537.15 1.087.264 1.648.343a11.314 11.314 0 01-5.497 2.193c-.047.005-.093.016-.14.02zm-11.937-3.732c-.27-.053-.538-.125-.804-.197-.098-.027-.198-.047-.295-.076-.213-.065-.421-.145-.631-.222-.149-.055-.3-.103-.446-.164-.154-.064-.303-.141-.455-.212-.194-.091-.39-.178-.577-.28-.098-.053-.193-.115-.29-.17-.23-.135-.462-.269-.683-.419-.038-.026-.074-.056-.113-.083-1.15-.8-2.15-1.807-2.94-2.968l-.05-.065a11.49 11.49 0 01-.436-.722c-.048-.085-.103-.168-.149-.255-.106-.197-.198-.403-.292-.607-.066-.144-.138-.285-.198-.43-.063-.152-.114-.31-.17-.466-.074-.206-.153-.409-.215-.618-.03-.098-.05-.2-.076-.298a11.856 11.856 0 01-.197-.81c-.006-.03-.008-.06-.013-.09-.026-.142-.041-.286-.062-.43A12.705 12.705 0 009 37.453c.014.005.028.011.043.015.316.099.64.177.964.25.096.022.188.053.285.072.247.05.5.08.752.116.177.025.35.06.53.079.135.012.275.011.412.02l.19.01c.032.59.092 1.17.2 1.736.004.017.005.035.008.052.06.314.142.62.225.926.029.108.051.218.082.325.071.234.157.46.24.689.064.178.123.358.195.534.064.155.14.304.21.456.11.24.219.48.344.716.042.078.09.151.134.228.274.49.584.961.927 1.418-.132-.02-.264-.033-.395-.057-.041-.008-.084-.01-.124-.02zM1.666 27.433a11.47 11.47 0 01-.146-.954c-.007-.064-.022-.126-.028-.191a11.338 11.338 0 01-.056-1.12c0-.015-.003-.03-.003-.043 0-.394.02-.783.06-1.166.003-.037.011-.072.015-.108a11.441 11.441 0 012.187-5.555c.03.215.058.43.098.643l.005.03c.062.322.144.636.23.949.027.1.047.2.077.3.073.243.162.478.248.714.061.17.117.342.186.51.068.164.148.321.222.482.106.231.21.464.332.69.046.087.1.169.15.255.448.796.99 1.552 1.62 2.256-.397.444-.767.903-1.092 1.386l-.017.024c-.18.268-.34.545-.498.823-.054.095-.114.185-.166.282-.116.218-.216.441-.319.664-.079.17-.162.336-.234.509-.065.16-.118.322-.176.483-.09.245-.182.488-.257.74-.027.09-.046.183-.07.274a12.568 12.568 0 00-.237.98c-.043.219-.071.443-.102.665a11.44 11.44 0 01-2.015-4.464l-.014-.058zM10.04 6.972c.224-.152.458-.287.693-.423.093-.054.185-.115.28-.166.187-.102.383-.189.576-.28.152-.071.303-.149.458-.213.142-.059.29-.107.436-.16.213-.079.425-.16.642-.226.09-.026.183-.045.274-.07.275-.076.55-.15.827-.203l.075-.012c.146-.027.293-.04.439-.063-.342.457-.652.929-.926 1.418-.043.076-.092.15-.134.228-.125.234-.234.475-.343.715-.07.152-.147.301-.21.457-.073.176-.132.355-.196.534-.083.228-.169.455-.24.689-.031.107-.053.216-.082.324-.083.306-.164.612-.225.926-.003.018-.004.036-.008.053a13.063 13.063 0 00-.2 1.738 12.68 12.68 0 00-2.799.459c-.07.02-.14.034-.21.054-.262.08-.518.176-.773.272-.15.055-.3.103-.447.164-.18.076-.353.164-.53.247-.214.1-.43.196-.639.31-.101.055-.198.119-.298.177-.271.155-.54.313-.802.49-.013.009-.025.02-.039.029-.174.119-.343.25-.514.378a11.492 11.492 0 014.819-7.775c.032-.023.063-.049.096-.071zM23.841 1.5a11.393 11.393 0 012.318 0c.047.004.093.015.14.02a11.315 11.315 0 015.497 2.194c-.556.078-1.1.19-1.63.339-.094.025-.19.044-.283.072-.243.074-.477.164-.714.25-.168.063-.339.118-.505.187-.16.068-.314.146-.472.22-.233.108-.468.214-.696.337-.08.045-.158.096-.238.142-.797.452-1.553 1-2.258 1.637a13.07 13.07 0 00-1.398-1.111l-.004-.003a12.67 12.67 0 00-.828-.506c-.092-.052-.179-.111-.272-.16-.216-.117-.438-.218-.66-.321-.169-.08-.336-.165-.509-.237-.153-.064-.31-.114-.464-.171-.25-.093-.498-.187-.755-.265-.077-.023-.155-.039-.233-.06a12.635 12.635 0 00-1.673-.35A11.312 11.312 0 0123.7 1.521c.048-.006.094-.016.141-.021zm13.03 4.003c.227.068.45.154.673.237.135.05.273.094.406.149.16.067.317.147.477.222.187.089.377.173.559.271.098.053.192.116.289.171.231.135.463.269.684.419.035.023.068.05.102.075a11.546 11.546 0 012.96 2.986l.04.053c.16.241.307.493.45.746.044.076.093.15.134.228.112.207.208.423.306.638.061.133.129.263.184.398.07.168.126.342.187.514.068.188.14.375.197.565.038.126.065.255.098.382.063.241.129.482.175.725.015.074.022.151.035.226.018.102.03.206.044.308-.17-.13-.34-.26-.515-.38l-.034-.025a12.921 12.921 0 00-.802-.49c-.1-.058-.197-.122-.299-.177-.208-.112-.422-.209-.635-.308-.177-.084-.352-.173-.535-.249-.144-.06-.293-.108-.439-.162a11.77 11.77 0 00-.779-.273c-.07-.021-.14-.035-.21-.055a12.729 12.729 0 00-2.8-.46c-.03-.59-.092-1.17-.199-1.737-.004-.018-.005-.035-.008-.053-.06-.314-.142-.62-.225-.926-.029-.108-.051-.217-.083-.324-.07-.234-.156-.461-.24-.69-.064-.178-.122-.357-.194-.533-.065-.156-.14-.305-.211-.457-.11-.24-.218-.481-.343-.715-.042-.078-.091-.152-.134-.228-.274-.489-.584-.96-.925-1.417.466.069.929.161 1.385.288.074.021.15.036.224.058zM48.508 23.96c.038.383.059.772.059 1.166 0 .014-.003.028-.003.043 0 .377-.019.751-.056 1.12-.007.065-.02.127-.028.191a11.54 11.54 0 01-.145.954l-.014.058a11.457 11.457 0 01-2.016 4.464c-.03-.222-.06-.446-.101-.665l-.001-.006c-.064-.33-.148-.653-.236-.973-.025-.092-.044-.185-.071-.276-.075-.25-.166-.494-.257-.739-.058-.161-.11-.324-.176-.483-.071-.173-.156-.34-.234-.509-.103-.223-.203-.446-.32-.664-.05-.097-.11-.187-.165-.282a13.062 13.062 0 00-.497-.823l-.019-.024a12.809 12.809 0 00-1.091-1.386c.63-.704 1.172-1.46 1.62-2.256.05-.086.104-.168.15-.255.121-.226.226-.459.332-.69.074-.16.154-.318.223-.482.068-.168.124-.34.185-.51.087-.236.175-.47.248-.713.03-.1.05-.201.077-.301.085-.313.168-.627.23-.949l.004-.03c.04-.212.069-.428.099-.643a11.436 11.436 0 012.187 5.555c.004.036.012.072.016.108zm-3.713 11.997c-.053.272-.125.54-.197.81-.027.098-.047.2-.077.298-.062.21-.14.415-.215.62-.056.155-.106.312-.168.463-.06.147-.134.29-.2.434-.095.203-.186.408-.29.604-.047.087-.102.17-.15.255-.14.245-.28.49-.437.722-.015.022-.033.043-.048.065a11.522 11.522 0 01-2.928 2.957c-.043.03-.084.066-.128.096-.214.144-.439.274-.662.404-.105.06-.206.128-.313.185-.178.096-.363.178-.546.265-.163.076-.322.159-.487.227-.133.055-.271.1-.407.15-.222.082-.445.167-.672.235-.079.024-.16.04-.24.063a11.6 11.6 0 01-.86.21c-.012.003-.024.003-.035.006-.157.03-.317.044-.475.069.342-.457.652-.93.926-1.418.043-.077.092-.15.134-.228.125-.235.234-.475.343-.716.07-.152.146-.3.21-.456.073-.176.131-.356.196-.534.083-.228.169-.455.24-.69.031-.106.053-.216.082-.324.083-.306.164-.612.225-.926.003-.017.004-.035.008-.052.107-.566.169-1.147.2-1.736.06-.003.12-.005.181-.01.14-.008.283-.007.423-.02.172-.018.338-.052.508-.077.259-.035.52-.067.774-.118.085-.018.166-.044.25-.063a12.672 12.672 0 004.91-2.289c-.021.143-.035.287-.061.428-.006.03-.009.061-.014.09zm-13.407 9.061c-.258-.05-.512-.12-.767-.187-.112-.031-.226-.055-.337-.088-.194-.059-.383-.133-.574-.201-.169-.062-.34-.118-.505-.186-.129-.054-.254-.12-.381-.178-.22-.102-.44-.201-.652-.316-.068-.036-.132-.08-.199-.118a11.304 11.304 0 01-.772-.473c-.42-.284-.81-.606-1.188-.942a12.845 12.845 0 001.587-2.226c.044-.077.092-.15.134-.228.125-.234.234-.475.343-.716.07-.151.147-.3.211-.456.072-.176.13-.355.195-.534.083-.228.17-.455.24-.69.031-.106.053-.215.083-.324.083-.305.163-.612.224-.926l.008-.052c.057-.302.104-.606.14-.915a12.692 12.692 0 007.21 2.749c-.029.479-.078.956-.165 1.429-.006.03-.008.06-.015.09-.052.273-.123.542-.196.81-.026.099-.046.2-.076.299-.063.21-.141.415-.216.62-.056.155-.106.311-.168.463-.06.147-.134.29-.2.434-.094.204-.185.408-.29.605-.047.086-.101.168-.15.254-.14.245-.28.489-.437.722-.015.023-.032.043-.048.066-.343.503-.73.971-1.147 1.413a11.459 11.459 0 01-1.765-.179c-.042-.008-.085-.01-.127-.019zm-8.592-1.744a11.43 11.43 0 01-.762.465c-.07.04-.137.085-.207.123-.21.114-.43.214-.648.315-.128.059-.254.124-.384.178-.167.07-.34.127-.512.19-.188.066-.374.14-.565.198-.118.035-.24.06-.36.092-.246.066-.493.133-.742.182-.058.012-.12.017-.178.028a11.55 11.55 0 01-1.718.172 11.475 11.475 0 01-1.147-1.415c-.016-.022-.034-.042-.048-.065a11.602 11.602 0 01-.437-.722c-.049-.086-.103-.169-.15-.254-.105-.198-.196-.404-.292-.608-.065-.143-.138-.285-.197-.43-.063-.153-.114-.31-.17-.467-.075-.204-.153-.409-.215-.617-.03-.098-.05-.2-.077-.299a11.234 11.234 0 01-.196-.81c-.005-.03-.008-.06-.014-.09-.086-.473-.136-.95-.165-1.429.037-.002.073-.002.11-.006.14-.008.282-.007.422-.02.172-.018.339-.052.509-.077.259-.035.52-.067.774-.118.085-.018.165-.044.249-.063a12.69 12.69 0 005.147-2.465 12.894 12.894 0 003.167 7.064c-.373.333-.76.65-1.174.933l-.02.015zm-11.28-6.751a12.03 12.03 0 01-.953-.147l-.07-.018a11.375 11.375 0 01-5.484-2.91c.016-.611.073-1.222.185-1.826.005-.023.007-.046.011-.068.054-.28.127-.557.202-.832.025-.092.043-.185.07-.276.065-.217.146-.43.224-.643.053-.146.1-.296.16-.44.064-.155.14-.305.211-.458.091-.194.178-.392.279-.58.051-.096.11-.187.165-.281.135-.236.27-.472.421-.697.022-.032.048-.063.07-.095.267-.389.563-.756.874-1.108.424.378.862.732 1.32 1.045.012.007.022.016.033.023.263.178.534.337.806.494.099.056.193.12.294.174.211.114.429.211.646.312.173.083.344.17.522.244.151.063.307.113.461.17.25.093.499.187.756.265.08.024.163.04.245.063a12.56 12.56 0 001.95.39 12.904 12.904 0 00-2.73 7.25c-.16-.009-.324-.008-.483-.024-.063-.007-.123-.02-.185-.027zm-6.468-18.86c-.029-.281-.035-.568-.043-.854.43-.412.89-.793 1.38-1.134.033-.024.065-.05.1-.073.222-.151.455-.286.688-.421.095-.056.188-.117.284-.168.185-.1.379-.187.57-.277.155-.072.307-.151.465-.217.14-.058.284-.104.426-.157.216-.079.432-.162.651-.228.087-.026.177-.044.265-.068.277-.076.555-.15.836-.205.02-.004.04-.005.06-.01.48-.09.964-.14 1.45-.169a12.938 12.938 0 00.203 1.711c.064.33.148.653.236.974.025.09.043.183.07.274.076.252.167.494.257.74.059.161.111.324.177.483.07.173.155.339.234.509.103.222.202.446.32.664.05.096.11.187.164.282.158.278.319.554.498.822.006.01.013.016.018.024.175.26.36.513.556.761a12.767 12.767 0 00-7.029 3.185 11.453 11.453 0 01-2.815-6.307c-.006-.048-.016-.094-.02-.141zm8.743-6.943c.052-.271.124-.54.196-.808.027-.1.047-.202.077-.3.062-.208.14-.413.215-.618.056-.155.107-.313.17-.465.06-.146.132-.288.199-.432.094-.204.185-.41.29-.606.047-.086.101-.169.15-.254.14-.245.28-.49.437-.722.014-.023.032-.044.048-.066.343-.503.73-.972 1.146-1.414.603.016 1.205.073 1.8.184.03.006.06.008.09.014.268.053.533.124.799.196.1.028.204.048.303.078.205.062.405.14.606.213.158.058.319.11.473.175.14.058.276.128.414.192.208.097.419.192.62.3.077.043.151.093.228.136.252.144.503.29.742.454.013.008.024.018.036.027.408.278.789.59 1.157.919a12.815 12.815 0 00-1.573 2.203c-.05.085-.103.168-.15.255-.12.226-.225.458-.331.69-.075.16-.155.317-.223.482-.07.168-.124.339-.186.509-.086.236-.175.472-.248.714-.03.1-.05.2-.077.3-.085.313-.167.628-.23.95l-.004.03c-.06.308-.106.62-.142.934a12.767 12.767 0 00-7.21-2.742c.027-.481.077-.961.165-1.437l.013-.09zm13.427-3.751c.201-.137.413-.257.623-.38.119-.07.234-.146.354-.21.162-.088.331-.162.497-.242.18-.085.357-.175.54-.25.112-.047.229-.084.343-.127.244-.092.487-.184.735-.258.05-.015.105-.026.156-.04a11.4 11.4 0 012.816-.425c.416.44.802.91 1.145 1.412.016.022.033.043.048.066.157.232.297.477.437.722.049.085.103.168.15.254.105.195.194.4.289.602.067.146.14.29.201.437.062.15.112.307.168.46.075.208.153.413.216.623.03.097.05.2.076.299.073.268.144.537.196.808.007.03.01.061.015.091.087.474.136.952.164 1.431a12.76 12.76 0 00-2.727.456c-.07.02-.14.034-.21.055-.265.08-.521.176-.78.273-.145.054-.293.102-.439.162-.181.076-.356.165-.534.249-.213.1-.427.196-.635.308-.102.055-.198.119-.298.177a12.9 12.9 0 00-.803.49l-.034.025c-.255.174-.505.359-.75.553a12.888 12.888 0 00-3.167-7.064c.332-.298.678-.579 1.044-.835.056-.04.108-.085.165-.122zm12.114 6.892c.276.054.548.127.82.201.093.026.19.045.281.073.215.065.426.146.637.223.147.055.297.102.44.162.154.065.304.142.456.212.194.092.39.18.578.281.094.051.184.111.277.165.235.136.47.272.695.424.032.022.063.048.095.07.49.34.95.722 1.381 1.133a11.688 11.688 0 01-.165 1.681c-.013.075-.02.152-.035.226-.047.244-.112.485-.175.725-.033.127-.06.257-.098.383-.056.19-.13.376-.196.564-.062.172-.118.346-.188.515-.055.134-.122.263-.182.396-.1.215-.196.432-.308.64-.041.077-.09.151-.134.227-.143.254-.29.505-.45.746l-.04.054a11.58 11.58 0 01-.902 1.146 12.96 12.96 0 00-1.29-1.022c-.023-.015-.043-.033-.067-.05-.255-.172-.52-.327-.785-.48-.105-.06-.206-.128-.314-.186-.206-.11-.417-.205-.627-.304-.18-.085-.358-.175-.542-.252-.145-.06-.293-.108-.44-.162-.257-.096-.513-.193-.777-.272-.074-.023-.15-.038-.223-.058a12.657 12.657 0 00-1.967-.396 12.899 12.899 0 002.729-7.244c.482.028.963.078 1.44.167.025.005.05.007.076.012zm3.73 13.486c.152.225.287.46.422.697.054.095.114.185.165.281.1.187.187.383.277.577.072.154.15.306.213.462.059.143.106.29.159.436.078.215.16.428.225.646.027.09.045.184.07.276.075.275.148.552.202.832l.01.068c.113.604.17 1.215.186 1.827a11.38 11.38 0 01-5.51 2.916c-.014.003-.028.008-.043.01-.318.066-.643.112-.97.15-.057.007-.112.02-.169.025-.157.016-.32.015-.48.025a12.835 12.835 0 00-.202-1.71v-.006c-.064-.33-.148-.653-.236-.974-.025-.091-.044-.184-.07-.275-.076-.251-.167-.494-.258-.74-.058-.16-.11-.323-.176-.482-.072-.174-.155-.34-.234-.509-.103-.222-.203-.446-.32-.665-.05-.096-.11-.186-.164-.281a12.808 12.808 0 00-.498-.823l-.018-.025a13.28 13.28 0 00-.556-.76 12.766 12.766 0 007.029-3.184c.312.353.61.72.877 1.111.022.032.048.063.07.095zm-15.438 8.61c-.053.272-.125.54-.197.81-.027.098-.047.2-.077.298-.062.21-.14.415-.215.62-.056.155-.107.312-.169.463-.06.147-.133.29-.2.434-.094.203-.185.408-.29.604-.046.087-.101.17-.15.255-.14.245-.28.49-.437.722-.014.022-.032.043-.048.065-.257.378-.542.734-.841 1.078a11.455 11.455 0 01-2.827-7.298 12.892 12.892 0 003.405-7.09 11.535 11.535 0 012.059 8.948c-.006.03-.008.061-.014.09zm-12.469.418c-.318.066-.643.112-.97.15-.058.007-.112.02-.17.025-.13.013-.266.011-.399.02a11.445 11.445 0 013.135-7.173 12.769 12.769 0 007.396-2.592c-.699 4.763-4.303 8.584-8.95 9.56-.014.003-.027.008-.042.01zm-.928-8.612a11.423 11.423 0 01-.835-.203c-.088-.025-.178-.043-.266-.07-.22-.066-.436-.149-.653-.229-.14-.052-.285-.098-.423-.156-.16-.066-.314-.145-.47-.219-.19-.089-.382-.174-.565-.273-.1-.054-.197-.119-.296-.176-.229-.133-.458-.265-.676-.413-.042-.028-.08-.06-.121-.089a11.57 11.57 0 01-1.023-.81 11.328 11.328 0 017.262-2.84 12.788 12.788 0 007.054 3.423 11.385 11.385 0 01-8.917 2.066l-.071-.01zm1.296-8.433a11.67 11.67 0 01-.421-.696c-.054-.094-.115-.186-.166-.281-.101-.189-.188-.387-.279-.583-.07-.151-.147-.3-.21-.455-.06-.144-.107-.295-.16-.442-.078-.213-.16-.425-.224-.642-.028-.09-.046-.184-.071-.275a11.873 11.873 0 01-.202-.832c-.004-.022-.005-.046-.01-.068a11.705 11.705 0 01-.164-1.37c2.59.171 5.127 1.22 7.134 3.151.068 2.629.93 5.234 2.58 7.433a11.422 11.422 0 01-7.738-4.845c-.021-.032-.047-.062-.07-.095zm6.855-5.047c.048-.243.113-.484.176-.725.034-.127.06-.256.099-.382.056-.19.128-.375.194-.562.063-.173.12-.348.19-.518.054-.133.12-.262.18-.393.1-.217.197-.434.31-.642.04-.077.09-.152.133-.228.144-.253.29-.505.452-.746.011-.018.026-.035.038-.053.26-.382.548-.741.85-1.088a11.452 11.452 0 012.826 7.299 12.9 12.9 0 00-3.404 7.088 11.524 11.524 0 01-2.078-8.824c.013-.075.02-.152.034-.226zm8.39 1.32c.223-.153.459-.29.694-.425.093-.054.183-.114.277-.165.19-.102.386-.19.58-.281.152-.071.3-.147.453-.212.145-.06.295-.108.442-.162.211-.077.421-.159.636-.223.092-.028.188-.047.281-.073a11.6 11.6 0 01.82-.201l.077-.012a11.65 11.65 0 011.355-.163 11.446 11.446 0 01-3.134 7.168 12.769 12.769 0 00-7.396 2.591 11.492 11.492 0 014.82-7.773c.032-.022.062-.048.094-.07zm5.003 6.884c.286.056.569.13.85.209.084.023.17.04.253.065.221.066.438.15.655.23.141.052.285.098.423.156.158.065.31.144.466.217.19.09.384.175.57.276.095.051.187.113.283.168.233.135.466.27.688.42.035.024.068.052.102.076.364.252.708.53 1.039.822a11.33 11.33 0 01-7.261 2.841 12.784 12.784 0 00-7.054-3.423 11.394 11.394 0 018.963-2.06l.023.003zM29.25 33.414a12.923 12.923 0 00-2.58-7.433 11.423 11.423 0 017.738 4.844c.022.032.047.063.069.095.15.225.286.46.422.697.053.094.114.185.164.281.101.187.187.383.277.576.071.154.15.307.214.464.059.142.105.29.159.435.077.214.16.428.224.646.027.09.046.185.07.275.076.276.148.553.202.833.005.022.006.045.01.068.085.455.135.914.165 1.376a11.289 11.289 0 01-7.134-3.157z" fill="#0451B6"/></g><path fill-rule="evenodd" clip-rule="evenodd" d="M9.746 60.85a5.22 5.22 0 012.032 2.073c.49.892.735 1.909.735 3.05 0 1.155-.245 2.18-.735 3.071a5.242 5.242 0 01-2.022 2.074c-.857.49-1.826.735-2.908.735-.922 0-1.754-.194-2.496-.581a4.756 4.756 0 01-1.827-1.701V76H.99V60.202h1.47v2.282a4.76 4.76 0 011.827-1.755c.756-.41 1.61-.615 2.561-.615 1.067 0 2.033.246 2.898.736zm-.844 9.061a3.922 3.922 0 001.524-1.59c.368-.688.552-1.47.552-2.348 0-.878-.184-1.657-.552-2.337a4.017 4.017 0 00-1.524-1.59 4.196 4.196 0 00-2.161-.571c-.808 0-1.532.19-2.173.57a4.04 4.04 0 00-1.514 1.59c-.367.681-.55 1.46-.55 2.338 0 .877.183 1.66.55 2.348a3.949 3.949 0 001.514 1.59c.64.373 1.365.56 2.173.56a4.26 4.26 0 002.161-.56zm24.289-8.545c.814.833 1.221 2.062 1.221 3.686v6.692h-1.534v-6.538c0-1.2-.285-2.114-.854-2.743-.57-.629-1.373-.944-2.411-.944-1.182 0-2.111.37-2.788 1.109-.678.739-1.017 1.758-1.017 3.06v6.056h-1.535v-6.538c0-1.2-.284-2.114-.854-2.743-.569-.629-1.38-.944-2.432-.944-1.167 0-2.094.37-2.778 1.109-.684.739-1.027 1.758-1.027 3.06v6.056h-1.534V60.203h1.47v2.106a4.126 4.126 0 011.686-1.623c.72-.38 1.549-.57 2.486-.57.951 0 1.776.205 2.475.613.7.41 1.221 1.017 1.568 1.822a4.455 4.455 0 011.805-1.788c.785-.432 1.682-.648 2.691-.648 1.427 0 2.548.417 3.362 1.25zm15.814-5.903v16.28h-1.47v-2.282a4.714 4.714 0 01-1.827 1.778c-.757.41-1.61.614-2.562.614-1.066 0-2.032-.248-2.896-.746a5.285 5.285 0 01-2.033-2.084c-.49-.893-.735-1.909-.735-3.05 0-1.14.245-2.158.735-3.05a5.216 5.216 0 012.033-2.073c.864-.49 1.83-.736 2.896-.736.922 0 1.755.194 2.497.582a4.758 4.758 0 011.827 1.7v-6.933h1.535zM45.427 69.91a3.943 3.943 0 001.513-1.59c.368-.688.552-1.47.552-2.348 0-.878-.184-1.66-.552-2.348a3.947 3.947 0 00-1.513-1.59 4.199 4.199 0 00-2.15-.56c-.808 0-1.532.186-2.174.56a3.942 3.942 0 00-1.513 1.59c-.368.688-.55 1.47-.55 2.348 0 .877.182 1.66.55 2.348a3.939 3.939 0 001.513 1.59c.642.373 1.366.56 2.173.56a4.2 4.2 0 002.151-.56z" fill="#0451B6"/></svg>